<svg width="20" height="20" viewBox="0 0 20 20" fill="none" xmlns="http://www.w3.org/2000/svg">
<path d="M9.75 1C4.875 1 1 4.875 1 9.75C1 14.625 4.875 18.5 9.75 18.5C14.625 18.5 18.5 14.625 18.5 9.75C18.5 4.875 14.625 1 9.75 1ZM9.75 17.25C5.625 17.25 2.25 13.875 2.25 9.75C2.25 5.625 5.625 2.25 9.75 2.25C13.875 2.25 17.25 5.625 17.25 9.75C17.25 13.875 13.875 17.25 9.75 17.25Z" fill="black"/>
<path d="M13.375 14.0156L10 10.725L6.625 14.0156L5.625 13.0406L9 9.75L5.625 6.45938L6.625 5.48438L10 8.775L13.375 5.48438L14.375 6.45938L11 9.75L14.375 13.0406L13.375 14.0156Z" fill="black"/>
</svg>
