<svg width="205" height="100" viewBox="0 0 205 100" fill="none" xmlns="http://www.w3.org/2000/svg">
<g clip-path="url(#clip0_508_3710)">
<path d="M21.7745 24.7646L19.0479 23.4043H16.9682L15.8359 24.2574L16.275 25.1105L16.6216 25.6177H17.9387L19.949 25.3872L21.3124 24.7646H21.7745Z" fill="white"/>
<path d="M26.3732 18.124C25.3796 18.124 24.5015 18.7004 23.6696 19.2537C23.531 19.346 23.3923 19.4612 23.2537 19.5765C22.7916 20.0838 22.9071 20.9369 23.3461 21.4211C23.7852 21.9052 24.5246 22.1127 25.1947 22.1127C25.8648 22.1127 26.5349 21.9052 27.2051 21.7438C29.123 21.2827 31.1102 21.1213 33.0743 21.2135C33.3054 21.2135 33.5827 21.2135 33.7444 21.0521C33.8831 20.8908 33.86 20.6141 33.7444 20.4296C33.6289 20.2452 33.4209 20.1299 33.2361 20.0146C32.8895 19.8071 32.5429 19.6226 32.1962 19.4151C31.6186 19.0923 31.0409 18.7465 30.4401 18.4929C28.9612 17.8703 27.2744 17.732 25.7031 18.0779" fill="white"/>
<path d="M59.255 30.4596C59.9713 30.4596 60.6876 30.4826 61.3809 30.5979C62.051 30.6901 62.698 30.8746 63.345 31.0591C64.1075 31.2666 64.8932 31.4741 65.6557 31.6816C66.9728 32.0505 68.3362 32.4194 69.4222 33.2264C70.7625 34.2178 71.6174 35.8548 71.6636 37.5379C71.6636 37.9068 71.6636 38.2988 71.4557 38.6216C71.2939 38.8983 71.0166 39.1288 70.7393 39.3133C69.9999 39.8436 69.2605 40.3278 68.4748 40.7889C67.9202 41.1117 67.3426 41.4345 66.7418 41.6881C66.3721 41.8495 66.0023 41.9878 65.6326 42.1031C65.2167 42.2645 64.8008 42.4029 64.3617 42.5412C61.7968 43.3251 59.047 43.3251 56.3897 43.0946C54.31 42.9101 52.2304 42.5873 50.1969 42.057C49.1109 41.7803 48.0479 41.4345 47.1005 40.812C46.1531 40.1894 45.3675 39.3133 45.0902 38.2296C44.9053 37.4918 44.9515 36.7079 45.0902 35.9701C45.2288 35.1631 45.4599 34.3331 46.0145 33.7106C46.5228 33.1341 47.2623 32.8344 47.9786 32.5347C49.2726 31.9813 50.5204 31.3127 51.9069 30.9668C53.4319 30.5749 55.0032 30.4596 56.5745 30.4365C57.4526 30.4365 58.3307 30.4365 59.2088 30.4365L59.255 30.4596Z" fill="white"/>
<path d="M40.5609 18.8851C40.6533 19.0926 40.6995 19.1848 40.7226 19.3923C40.7226 19.6229 40.7226 19.9457 40.7226 20.1532C40.6764 20.8218 41.0461 21.4443 41.3927 21.9977C42.2246 23.3119 43.0565 24.6492 43.8883 25.9634C44.027 26.1709 44.1656 26.4015 44.3967 26.5398C44.6278 26.6782 44.9281 26.7012 45.113 26.5168C45.2054 26.4246 45.2516 26.3093 45.2748 26.194C45.3672 25.8251 45.321 25.4331 45.3903 25.0873C45.4596 24.7414 45.76 24.3495 46.1297 24.3495C46.2684 24.3495 46.3839 24.3956 46.5226 24.4648C47.5393 24.9259 48.3249 25.802 49.0181 26.6782C49.85 27.7388 50.5894 28.8686 51.2133 30.0675C51.4444 30.5286 51.6986 30.9898 52.0914 31.3356C52.7153 31.889 53.6165 31.9581 54.4484 32.0273C55.0261 30.9206 54.5408 29.6064 54.0093 28.4766C53.1081 26.5629 52.0452 24.7184 50.8667 22.943C50.1273 21.8363 49.3185 20.7527 48.1863 20.061C48.0014 19.9457 47.7935 19.8304 47.5624 19.8534C47.1927 19.8534 46.8923 20.1762 46.7767 20.5221C46.6612 20.8679 46.6612 21.2368 46.615 21.6057C46.615 21.7441 46.5688 21.9055 46.4763 22.0208C46.3146 22.2052 46.0142 22.2052 45.8062 22.0899C45.5983 21.9746 45.4365 21.7671 45.2979 21.5827C43.4262 19.0004 42.0166 16.1644 40.5377 13.3515C40.168 12.6598 39.7983 11.9451 39.4055 11.2534C39.2437 10.9536 38.5967 9.40884 38.2039 9.4319C37.6724 9.47801 38.6198 13.3746 38.7585 13.8587C39.1975 15.588 39.8214 17.2711 40.6071 18.862L40.5609 18.8851Z" fill="white"/>
<path d="M74.9448 28.1313C75.5225 27.8776 76.1695 27.624 76.5161 27.0937C76.8165 26.6557 76.8396 26.1023 76.8858 25.572C76.8858 25.2031 76.8859 24.742 76.6086 24.5345C76.4468 24.4192 76.2388 24.3731 76.054 24.35C75.7536 24.3039 75.4532 24.2578 75.1528 24.2347C74.8755 24.1886 74.5982 24.1655 74.3209 24.2117C74.0205 24.2578 73.7664 24.3961 73.5122 24.5575C72.1026 25.4337 71.109 26.8862 70.67 28.4771C70.4851 29.1458 70.1847 30.2986 70.462 30.9672C70.67 31.5206 70.9473 31.1056 71.2246 30.8058C71.5481 30.46 71.8716 30.1602 72.2413 29.8605C73.0731 29.1688 73.9974 28.5924 74.991 28.1313H74.9448Z" fill="white"/>
<path d="M75.6841 35.7392C76.0076 35.8545 76.308 36.062 76.6315 36.1772C76.9088 36.2695 77.2092 36.3156 77.5096 36.3617C77.9717 36.4309 78.4339 36.5 78.9192 36.5462C79.0809 36.5462 79.2658 36.5923 79.4044 36.5C79.4968 36.4539 79.5662 36.3617 79.6124 36.2695C79.959 35.6931 79.8203 34.8861 79.312 34.4711C78.9423 34.1483 78.4339 34.056 77.9717 33.9638C77.4172 33.8485 76.8395 33.7563 76.308 33.9408C76.0538 34.033 75.8228 34.1713 75.5917 34.3097C75.1527 34.5863 74.367 35.0244 74.2515 35.5547C74.7367 35.5547 75.1989 35.5547 75.661 35.7392H75.6841Z" fill="white"/>
<path d="M79.8664 30.0673C80.6983 29.6753 81.5302 29.3064 82.4314 29.1681C83.5405 29.0067 84.6959 29.2603 85.7357 29.6984C86.0592 29.8367 86.3827 29.975 86.6369 30.2056C86.9142 30.4592 87.1221 30.782 87.307 31.1048C88.0002 32.3268 88.6703 33.5719 89.248 34.863C89.3173 35.0244 89.4098 35.2089 89.5484 35.3472C89.7795 35.6008 90.1261 35.6931 90.4496 35.7392C90.7038 35.7853 90.958 35.8083 91.189 35.7392C91.4201 35.67 91.6512 35.5086 91.7205 35.255C91.7898 35.0244 91.7205 34.7708 91.8129 34.5863C91.9978 34.2405 92.5293 34.3558 92.8065 34.6325C93.0838 34.9091 93.1994 35.3011 93.4998 35.5547C93.6153 35.67 93.7771 35.7622 93.8695 35.8775C94.0775 36.1311 94.1006 36.477 94.0775 36.7998C94.0081 37.7681 93.546 38.6674 92.8528 39.336C92.1595 40.0046 91.2352 40.4197 90.2878 40.5349C89.9181 40.581 89.5022 40.581 89.2018 40.3505C89.0632 40.2583 88.9707 40.0969 88.8321 40.0046C88.6934 39.8894 88.5086 39.8432 88.3468 39.751C87.6998 39.4513 87.2146 38.8287 86.9142 38.1832C86.6138 37.5376 86.4058 36.8228 86.1516 36.1542C85.5739 34.6555 84.6034 33.3182 83.3556 32.2807C83.0552 32.0271 82.7317 31.7965 82.3851 31.6582C82.0847 31.5429 81.7843 31.4737 81.4608 31.4045L79.8895 31.0818C79.566 31.0126 78.7111 30.9895 78.5493 30.7129C78.9421 30.4592 79.4274 30.2748 79.8664 30.0903V30.0673Z" fill="white"/>
<path d="M100.848 48.1206C101.218 47.89 101.634 47.7056 101.934 47.3828C102.05 47.2675 102.142 47.1522 102.304 47.06C102.466 46.9678 102.651 46.9678 102.835 46.9678C103.066 46.9678 103.274 46.9678 103.482 47.0369C103.991 47.2214 104.268 47.7978 104.268 48.3281C104.268 48.8584 103.968 49.3657 103.644 49.7807C103.506 49.9421 103.367 50.1265 103.205 50.2418C102.835 50.4954 102.327 50.5415 101.865 50.4263C101.403 50.311 101.01 50.0804 100.617 49.8498C99.7621 49.3195 100.155 48.5587 100.848 48.0745V48.1206Z" fill="white"/>
<path d="M88.0698 57.0895C90.5654 55.268 93.5462 54.3458 96.6426 54.853C99.4155 55.3142 101.934 56.6284 104.337 58.0118C109.768 61.1705 114.805 64.6521 121.229 65.4129C123.101 65.6435 124.695 63.6606 124.695 61.9544C124.695 59.9024 123.101 58.7265 121.229 58.496C115.313 57.7812 110.392 53.216 105.239 50.6337C98.6299 47.3135 90.8427 46.5527 84.5806 51.1409C83.0786 52.2476 82.3161 54.1383 83.3328 55.8675C84.2109 57.3431 86.5678 58.2193 88.0698 57.1126V57.0895Z" fill="#3872DD"/>
<path d="M102.535 38.3676C102.396 37.3762 102.304 36.3617 101.934 35.4394C101.541 34.448 100.917 33.5258 100.409 32.5804C100.155 32.1193 99.9467 31.7965 99.4845 31.5429C98.9993 31.2662 98.5371 31.0356 98.0981 30.6898C97.7053 30.3901 97.3355 29.975 96.9196 29.6753C96.5499 29.5139 96.1571 29.3756 95.8105 29.145C95.8105 29.145 95.7874 29.0989 95.7642 29.0989C95.5332 29.0989 95.3021 29.0989 95.0479 29.122C94.4933 29.1681 93.9388 29.2142 93.4073 29.3756C93.338 29.3756 93.2455 29.4217 93.1531 29.4678C93.1069 29.5139 93.0838 29.537 93.0376 29.5831C92.6448 29.9289 92.275 30.1364 91.8129 30.3209C91.7205 30.367 91.628 30.367 91.5356 30.367C91.397 30.6667 91.3045 30.9665 91.2121 31.2662C91.2583 31.2662 91.2814 31.2662 91.3045 31.2662C92.9683 31.3123 94.8168 31.5198 95.926 32.9032C97.5666 34.9322 97.5897 38.2293 95.7411 40.166C95.279 40.6502 94.7013 41.0191 94.1929 41.4572C93.569 41.9875 92.922 42.4486 92.1595 42.7253C91.3738 43.025 90.542 42.9098 89.7101 43.002C89.248 43.0481 88.8089 43.1864 88.3468 43.2326C88.185 43.2326 88.0002 43.2556 87.8384 43.2787C88.0926 43.5092 88.3468 43.7629 88.6241 43.9934C88.5548 43.9473 88.7396 44.0626 88.7627 44.0856C88.8552 44.1318 88.9476 44.2009 89.0631 44.247C89.2942 44.3854 89.5022 44.5237 89.7101 44.7082C90.2416 45.1462 90.1261 46.2299 89.479 46.5296C88.4623 46.9908 87.3994 46.7602 86.3596 46.4835C85.2735 46.2068 84.1644 45.7918 83.1939 45.2385C82.2002 44.6851 81.6226 43.7629 80.86 42.9789C80.5134 42.61 80.2592 42.4947 79.8202 42.1489C79.5891 41.9644 79.3811 41.78 79.1963 41.5494C79.0576 41.5494 78.8959 41.4803 78.7803 41.388C78.272 40.9961 77.7174 40.6272 77.1397 40.3505C77.0242 40.2813 76.8855 40.2352 76.77 40.1891C76.77 40.1891 76.7238 40.1891 76.7007 40.166C76.6314 40.143 76.562 40.1199 76.4927 40.0969C76.2154 40.0046 75.915 39.9124 75.6377 39.8663C75.5453 39.8663 75.4529 39.8432 75.3605 39.8202C75.2218 39.8202 75.0832 39.8202 74.9676 39.7971C74.7366 39.7971 74.5055 39.751 74.2513 39.7049C74.0433 39.7049 73.8585 39.6818 73.6505 39.6818C73.4426 39.728 73.2346 39.751 73.0266 39.8432C72.9804 39.8432 72.9573 39.8663 72.9111 39.8894C72.5183 40.0508 72.1254 40.2583 71.7326 40.5349C71.594 40.6272 71.4322 40.7424 71.178 40.9038C71.2474 40.558 71.2705 40.3274 71.3398 40.0969C71.4322 39.8202 71.5246 39.5435 71.6171 39.2668C71.3629 38.8057 71.5246 38.3215 71.8481 37.9757C71.7095 37.284 71.6171 36.5692 71.2936 35.9467C70.9701 35.3242 70.6003 34.7016 70.1844 34.1483C69.3988 33.1107 68.3589 32.3268 67.1342 31.8426C65.5167 31.2201 63.8068 30.8281 62.0968 30.4823C60.2945 30.1364 58.4459 30.344 56.6204 30.344C56.4587 30.344 56.3431 30.2978 56.2276 30.2517C56.1583 30.2978 56.0889 30.344 56.0196 30.367C55.9965 30.4131 55.9503 30.4592 55.9503 30.5284C55.9503 30.8512 56.1814 30.9665 56.4818 30.9665C56.759 30.9665 57.0594 30.9665 57.3367 30.9665C60.6642 30.9665 63.9223 31.3815 67.0187 32.6035C68.3589 33.1338 69.5836 33.8716 70.531 35.0014C71.6633 36.3848 71.5477 37.8143 70.1844 39.0363C70.1844 38.9902 70.1844 38.944 70.1844 38.921C70.8776 37.2379 70.3693 35.9697 69.0753 34.9322C67.7581 33.8485 66.1868 33.2952 64.5462 32.8571C64.4769 32.8571 64.3845 32.811 64.3383 32.8341C64.1765 32.9263 63.9916 32.9955 63.9223 33.1338C63.8761 33.226 63.9685 33.4796 64.0841 33.5488C64.292 33.6872 64.5693 33.7563 64.8235 33.8255C66.002 34.1483 67.1574 34.5633 68.151 35.3011C68.5669 35.6008 68.9366 35.9928 69.2601 36.4078C69.6992 36.9842 69.7454 37.6529 69.445 38.2985C68.9828 39.336 68.151 39.9355 67.0187 40.0969C65.8865 40.2583 64.939 39.8432 64.2458 38.944C63.853 38.4368 63.5757 37.8373 63.206 37.307C62.6745 36.5462 62.1431 35.7622 61.5192 35.0936C60.7104 34.2405 59.8092 34.4941 59.4164 35.5778C59.3702 35.7161 59.3471 35.8545 59.2777 35.9928C59.1391 36.3156 58.9774 36.6153 58.7463 37.0534C58.4228 36.7076 58.1917 36.477 58.0068 36.2234C57.7296 35.7853 57.4523 35.3242 57.2443 34.84C56.528 33.3413 55.8348 31.8196 55.1415 30.3209C54.8873 30.2056 54.6563 30.0212 54.5638 29.7214C54.5176 29.6753 54.4714 29.6292 54.4483 29.5831C54.1479 28.9144 53.7089 28.3611 53.6858 27.6002C53.2467 26.701 52.7153 25.871 52.23 24.9718C51.7216 24.0726 51.3288 23.1042 50.7742 22.2281C50.728 22.1589 50.6818 22.0897 50.6125 22.0205C50.4507 21.79 50.289 21.5594 50.081 21.3519C49.3878 20.6141 48.5097 19.8763 47.5854 19.6227C47.5161 19.6227 47.493 19.5996 47.493 19.5996C47.493 19.5996 47.4699 19.5996 47.4237 19.5996C47.3775 19.5996 47.0771 19.6457 47.2619 19.5996C47.2157 19.5996 47.1926 19.5996 47.1695 19.5996C47.1695 19.5996 47.1695 19.5996 47.1002 19.6457C47.054 19.7841 47.2619 19.5304 47.1002 19.6457C46.9846 19.8763 46.8922 20.0377 46.7998 20.2682C46.9153 20.7524 46.9153 21.2597 46.6149 21.6747C46.2221 22.205 45.5982 22.2972 45.1129 22.0667C45.2516 22.205 45.3902 22.3664 45.552 22.4817C46.1297 22.8967 46.6842 22.6661 46.8922 21.9975C47.0077 21.6055 47.0309 21.1905 47.1233 20.7985C47.1695 20.591 47.2388 20.3835 47.3312 20.1069C48.3249 20.4758 48.9025 21.1675 49.4802 21.8822C50.7049 23.427 51.7447 25.0871 52.5766 26.8624C53.8937 29.6292 55.1415 32.396 56.4587 35.1628C56.759 35.8084 57.1288 36.4309 57.5678 36.9842C58.5383 38.1601 59.4395 37.9987 60.0172 36.6153C60.1558 36.2695 60.2945 35.9236 60.4562 35.5778C61.1494 35.7392 61.4729 36.2234 61.7964 36.6845C62.3048 37.4223 62.7439 38.1601 63.206 38.921C63.853 40.0046 64.7542 40.7194 66.0251 40.95C66.1868 40.973 66.3717 41.0191 66.5335 41.0652C66.2099 41.2727 65.8633 41.4111 65.5398 41.5033C64.2458 41.8722 62.9287 42.0797 61.5885 42.2181C57.5678 42.587 53.732 42.0336 50.081 40.2583C49.1336 39.7971 48.2555 39.2207 47.5623 38.4137C46.7073 37.3993 46.7073 36.3386 47.6316 35.4164C48.0707 34.9783 48.6021 34.6786 49.1105 34.3097C49.2492 34.2175 49.4109 34.1713 49.5496 34.0791C49.7344 33.9408 49.8268 33.7563 49.7113 33.5258C49.5958 33.2952 49.3878 33.226 49.1798 33.3182C48.7177 33.5258 48.2555 33.7333 47.8627 34.033C46.4763 35.0244 45.6444 36.2695 46.2914 38.1832C45.5982 37.4915 45.3671 36.7767 45.552 35.9467C45.7368 35.1858 46.1528 34.5402 46.7305 34.033C47.6316 33.226 48.6715 32.6496 49.8037 32.2576C49.8731 32.2576 49.9424 32.2115 49.9886 32.1885C49.8731 32.1654 49.7575 32.1193 49.642 32.0501C49.5264 31.981 49.4109 31.8887 49.2954 31.8196C49.2492 31.8657 49.2029 31.8887 49.1567 31.9349C48.7639 32.2346 48.3249 32.4421 47.8165 32.5574C47.6779 32.5804 47.5623 32.5804 47.4468 32.5574C47.4006 32.6265 47.3775 32.6957 47.3312 32.7649C46.9153 33.226 46.1297 33.1799 45.6906 32.7649C45.2054 32.3038 45.0205 31.7273 44.9512 31.0818C44.9281 30.7359 44.9512 30.3901 44.9281 30.0673C44.8819 29.7906 44.8125 29.537 44.697 29.2834C44.6277 29.145 44.5815 29.0297 44.5121 28.8914C44.4197 28.7069 44.3966 28.4994 44.3966 28.315C44.3042 28.338 44.1886 28.3841 44.0731 28.3841C43.3106 28.3841 42.9408 27.7847 42.964 27.1852C42.8946 27.2313 42.8253 27.2774 42.756 27.3005C42.5942 27.3466 42.4556 27.3466 42.2938 27.3005C42.1321 27.3005 41.9935 27.2544 41.8548 27.1622C41.7393 27.116 41.6468 27.0469 41.5544 27.0008C41.5544 27.0008 41.5544 27.0008 41.5313 27.0008C41.4851 26.9777 41.4389 26.9546 41.3927 26.9316C41.462 26.9546 41.5313 26.9777 41.5775 27.0238C41.6468 27.0238 41.7162 27.0238 41.8086 27.0469C41.6006 27.0469 41.4158 27.0008 41.2309 26.8855C41.2309 26.8855 41.1847 26.8624 41.1847 26.8394C41.1385 26.8394 41.1154 26.8624 41.0692 26.8624C39.8676 26.8855 38.7815 27.6694 38.0421 26.2629C37.7879 25.7557 37.5568 25.5482 37.164 25.1332C36.5632 24.5107 36.1704 24.5107 35.2692 24.5107C33.929 24.5107 32.7274 24.9487 31.4565 25.1332C31.4565 25.1332 31.4103 25.1332 31.3872 25.1793C31.3872 25.1793 31.3641 25.1793 31.341 25.1562C31.2023 25.1562 31.0637 25.2023 30.925 25.2254C30.486 25.2485 29.9314 25.1793 29.4924 25.3407C29.2382 25.4329 29.0302 25.6865 28.776 25.8249C28.2215 26.0785 27.7131 26.0785 27.1354 25.9863C25.7952 25.7788 24.2932 25.7788 23.5076 27.116C23.161 27.7155 22.7912 28.4533 22.5833 29.122C22.3753 29.7214 22.2367 30.2748 21.7745 30.759C21.0351 31.5198 19.9259 31.8657 19.0016 32.3038C18.216 32.6727 17.8925 33.1338 17.5228 33.8947C17.1993 34.5633 16.714 35.255 16.7602 36.0159C16.7602 36.2464 16.714 36.4309 16.6216 36.5923C16.6678 36.7767 16.6909 36.9612 16.6678 37.1687C16.5754 37.7912 16.922 38.506 17.1531 39.0824C17.1993 39.1746 17.2224 39.2899 17.2686 39.3821C17.4997 39.5666 17.7307 39.7741 17.8925 40.0277C18.1236 40.3735 18.2622 40.7194 18.4008 41.0883C18.4702 41.1575 18.5626 41.2497 18.6088 41.365C18.9092 41.9414 19.0016 42.5178 18.8861 43.1403C18.7937 43.5784 18.5857 43.9704 18.4702 44.3854C18.2391 45.2154 18.1698 46.0224 17.7538 46.7833C17.8463 46.9447 17.8925 47.1291 17.8925 47.3136C17.8925 47.3597 17.8925 47.7977 17.8925 47.5672C17.8925 47.6363 17.9156 47.6825 17.9387 47.7516C17.9387 47.7516 17.9387 47.7516 17.9618 47.7977C17.9849 47.8439 17.9849 47.8439 18.008 47.8669C18.0773 47.9361 18.0773 47.9591 17.9849 47.8669C18.0311 47.913 18.1236 47.9591 18.1698 47.9822C18.6319 48.2589 19.1172 48.5586 19.4176 49.0428C19.8566 49.8037 19.6486 50.6106 19.0941 51.2562C19.0941 51.2793 18.9785 51.3946 18.9323 51.4637C18.9323 51.5329 18.863 51.6482 18.863 51.6712C18.7706 52.0171 18.7475 52.1554 18.7475 52.4782C18.7475 52.5474 18.7475 52.6166 18.7475 52.6857C18.7475 52.8241 18.7475 52.8702 18.7475 52.778C18.7475 52.8702 18.7706 52.9624 18.7937 53.0546C18.8399 53.216 18.8399 53.2391 18.7937 53.1238C18.8861 53.3774 19.0479 53.6311 19.1403 53.8847C19.51 53.8386 19.8797 53.9308 20.1339 54.1614C20.596 54.6225 20.5267 55.3142 20.1339 55.7984C20.2725 55.6139 20.1339 55.8214 20.1339 55.9598C20.1108 56.0981 20.0877 56.2134 20.0877 56.3978C20.0877 56.7898 20.0877 57.1818 20.0877 57.5507C20.0877 57.8965 20.0646 58.2654 20.0184 58.6113C20.1339 58.7957 20.2032 58.9802 20.2263 59.2107C20.2725 59.5796 20.2725 59.9485 20.2494 60.3174C20.2494 61.3089 20.157 62.3003 19.9953 63.2687C19.9953 63.407 19.9953 63.5454 20.0415 63.7068C20.2032 64.7443 20.4343 65.7357 20.4805 66.7963C20.4805 66.8886 20.4574 66.9347 20.4574 67.0269C20.9427 67.8569 21.451 68.687 22.2367 69.2173C23.9466 70.3701 26.4422 70.347 28.4063 70.6698C30.6477 71.0387 32.9816 71.2232 35.2461 71.1079C36.4015 71.0387 37.5799 70.9004 38.7353 70.7621C39.752 70.6237 40.9767 70.5315 41.8317 69.932C41.901 69.8859 41.9703 69.8859 42.0397 69.8398C42.0397 69.8398 42.0628 69.8167 42.0859 69.8167C43.1719 69.3556 43.9345 68.5025 44.8819 67.8569C45.7599 67.2575 46.3838 67.6033 47.2619 68.0183C48.3711 68.5256 49.6189 68.5025 50.7511 68.1105C51.8141 67.7647 52.8308 67.0038 53.9168 66.7963C54.9798 66.6119 56.2507 67.0499 57.2905 67.1883C58.4459 67.3497 59.6012 67.3036 60.7335 67.0961C61.5423 66.9577 62.6283 66.6349 63.5988 66.7041C63.8068 66.5888 64.0148 66.4966 64.1996 66.3583C64.708 65.9893 65.1239 65.6435 65.7016 65.4129C66.1406 65.2515 66.6028 65.1824 67.088 65.1132C67.4577 65.0671 67.8275 65.021 68.1972 64.9979C68.3589 64.9979 68.5438 64.9749 68.7055 64.9518C68.7749 64.9518 68.8673 64.9518 68.9366 64.9287C68.9366 64.9287 68.9366 64.9287 68.9828 64.9287C69.1446 64.9057 69.3294 64.8596 69.4912 64.8135C69.5836 64.8135 69.653 64.7674 69.7454 64.7443C69.7916 64.7443 69.8147 64.7212 69.8378 64.7212C69.884 64.6982 69.9533 64.6521 69.9996 64.629C69.9302 64.7674 70.0689 64.5829 69.9996 64.629C69.9996 64.629 70.0458 64.5829 70.0689 64.5598C70.0689 64.5598 70.0689 64.5368 70.0689 64.5137C70.0689 64.5137 70.0689 64.5368 70.0689 64.5598C70.0689 64.5598 70.0689 64.5598 70.0689 64.606C70.1844 64.3062 70.3924 64.0526 70.6466 63.9143C70.6466 63.8681 70.6466 63.8451 70.6466 63.799C71.2011 62.185 72.7955 62.4386 74.182 62.3925C76.4234 62.3003 78.5955 61.9775 80.7676 61.355C83.009 60.7094 85.1811 59.6719 87.2839 58.6574C88.3468 58.1501 89.3866 57.6198 90.4034 57.0204C90.8655 56.7437 92.6448 56.0289 92.7372 55.6139C92.8758 54.9914 93.3842 54.7608 93.8694 54.8069C93.985 54.6455 94.0543 54.4611 94.1929 54.2997C94.2854 54.1844 94.3778 54.0691 94.4702 53.9538C94.5164 53.9077 94.5627 53.8386 94.6089 53.7924C94.5627 53.8155 94.5627 53.8386 94.5396 53.8616C94.5627 53.8386 94.5858 53.7924 94.6089 53.7694C94.7013 53.6311 94.7706 53.4927 94.8631 53.3544C94.8631 53.3083 94.8862 53.2621 94.9093 53.216C94.9093 53.1469 94.9324 53.1007 94.9555 53.0316C94.9555 52.9855 94.9555 52.9394 94.9555 52.8932C94.9555 52.6396 94.9786 52.386 94.9786 52.1324C94.9786 52.0401 94.9786 51.9479 94.9786 51.8326C94.7937 51.6943 94.6551 51.4868 94.5858 51.2562C94.5858 51.2562 94.5627 51.2562 94.5396 51.2562C94.1698 51.2101 93.8001 51.2101 93.4304 51.2562C93.2224 51.3023 93.0145 51.3254 92.8065 51.3946C92.7603 51.4176 92.7141 51.4407 92.6679 51.4637C92.5523 51.5329 92.4599 51.6021 92.3675 51.6712C92.2057 51.7865 91.9977 51.8096 91.7898 51.8096C91.7436 51.8787 91.7205 51.9249 91.6742 51.994C91.4201 52.2938 90.9117 52.386 90.542 52.2938C90.1492 52.1785 89.8488 51.8788 89.7332 51.4868C89.5484 50.8873 89.7794 50.2648 90.1954 49.8498C90.542 49.5039 90.981 49.2964 91.4432 49.112C91.9977 48.8814 92.5985 48.7431 93.1762 48.5817C93.2455 48.5817 93.2918 48.5817 93.3611 48.5817C93.5459 48.5356 93.7308 48.5125 93.9388 48.4894C93.8463 48.4894 93.7308 48.5125 93.6384 48.5356C93.8463 48.5125 94.0774 48.4664 94.2623 48.3742C94.1929 48.3972 94.1467 48.4203 94.0774 48.4433C94.1698 48.3972 94.2623 48.3742 94.3547 48.3742C94.3547 48.3742 94.4009 48.3742 94.424 48.3742C94.4702 48.3742 94.4933 48.3742 94.5396 48.3511C94.632 48.3511 94.7244 48.305 94.8168 48.2819C94.8631 48.2819 94.9093 48.2819 94.9786 48.2819C95.3483 48.2358 95.718 48.1436 96.0646 48.0053C96.134 47.9591 96.2264 47.9361 96.2957 47.8669C96.5037 47.6594 96.781 47.5672 97.0814 47.5441C97.1276 47.5441 97.1969 47.5441 97.2431 47.5902C97.3124 47.5672 97.3818 47.5441 97.4511 47.5211C97.4511 47.498 97.4973 47.475 97.4973 47.4288C97.5897 47.2444 97.7284 47.1291 97.9132 47.0138C97.9826 46.9908 98.0519 46.9447 98.1443 46.9216C98.2598 46.6219 98.4678 46.3682 98.8375 46.276C98.8375 46.276 98.8375 46.276 98.8606 46.276C98.9993 46.276 99.1148 46.2068 99.2303 46.1607C99.3459 46.1146 99.4383 46.0455 99.5307 45.9763C99.6463 45.8841 99.7387 45.7688 99.8311 45.6765C99.9929 45.446 100.132 45.2154 100.247 44.9618C100.224 45.031 100.178 45.1001 100.155 45.1693C100.201 44.9848 100.316 44.8004 100.455 44.6621C100.524 44.5929 100.617 44.5468 100.686 44.4776C100.732 44.4545 100.779 44.4545 100.825 44.4315C101.171 43.5553 101.587 42.7253 101.98 41.8722C102.003 41.803 102.026 41.7569 102.049 41.6878C102.096 41.5725 102.142 41.4572 102.188 41.3419C102.281 41.1114 102.35 40.8577 102.419 40.6041C102.442 40.4658 102.465 40.3274 102.488 40.2121C102.488 40.166 102.488 40.0969 102.488 40.0508C102.488 39.7741 102.488 39.4974 102.488 39.2207C102.488 38.9671 102.581 38.7596 102.72 38.5751L102.535 38.3676Z" fill="white"/>
<path d="M55.9502 38.9441C55.2108 37.3301 54.4251 35.7161 53.7088 34.0791C52.6459 31.6582 51.4212 29.3064 49.9654 27.093C49.2722 26.0324 48.4865 25.0179 47.4698 24.2571C46.3145 23.404 45.2746 23.7037 45.136 25.2715C45.1129 25.5943 45.0204 25.8941 44.9511 26.286C44.7663 26.1477 44.6507 26.1016 44.5814 26.0093C44.3734 25.7788 44.1886 25.5252 44.0037 25.2715C42.8252 23.5192 41.8547 21.6747 40.9998 19.761C40.1217 17.7321 39.5671 15.6109 39.0819 13.4666C38.897 12.5904 38.689 11.7374 38.5042 10.8612C38.5504 10.8612 38.5966 10.8381 38.6428 10.8151C38.9432 11.3454 39.2436 11.8757 39.5209 12.429C40.8149 14.85 42.1089 17.2709 43.4029 19.6688C43.7495 20.2913 44.1424 20.8908 44.5583 21.4672C44.5814 21.5133 44.6276 21.5364 44.6738 21.5825C44.6276 21.5133 44.5583 21.4672 44.5352 21.375C44.4197 21.0522 44.4197 20.7294 44.4428 20.3836C44.3272 20.176 44.2348 19.9685 44.1193 19.761C43.9575 19.4613 43.7726 19.1616 43.634 18.8388C43.5878 18.7927 43.5416 18.7696 43.5185 18.7004C43.1719 18.101 42.7097 17.5937 42.4555 16.9251C42.2013 16.3025 42.0627 15.657 41.8085 15.0575C41.2308 13.651 40.3297 12.406 39.5209 11.1379C39.3591 10.8843 38.0882 8.46333 37.7647 8.50944C37.4643 8.55555 37.395 8.92446 37.395 9.33947C37.4643 9.86977 37.5568 10.377 37.6261 10.9073C38.1576 13.3744 38.5504 15.8875 39.5902 18.2162C39.8906 18.8849 40.3065 19.5074 40.6069 20.1991C40.9073 20.8908 41.0922 21.5594 41.485 22.205C42.0396 23.1042 42.2707 24.3723 43.1256 25.041C43.4723 25.2946 43.5416 25.6174 43.4954 25.9171C43.4954 25.9632 43.4954 26.0324 43.4954 26.0785C43.4954 26.1016 43.5416 26.1246 43.5647 26.1477C43.7033 26.1016 43.842 26.0555 44.0037 26.0555C44.5814 26.0555 44.928 26.4013 45.0667 26.8394C45.1129 26.7933 45.1591 26.7472 45.2053 26.701C45.2053 26.678 45.2053 26.6319 45.2053 26.6088C45.2284 26.2399 45.2053 25.871 45.2053 25.5252C45.2284 25.064 45.4826 24.649 45.9216 24.4646C46.3376 24.2801 46.869 24.3723 47.1925 24.6951C47.6547 25.1793 48.0475 25.7096 48.371 26.286C48.5097 26.3783 48.6252 26.4935 48.7176 26.6319C48.4865 26.3552 48.7407 26.6549 48.8101 26.7241C48.9025 26.8163 48.9949 26.9316 49.0642 27.0238C49.2722 27.2775 49.4802 27.5311 49.665 27.8078C49.8037 28.0153 49.8961 28.2689 49.9654 28.4995C50.3582 29.145 50.7511 29.7906 51.1208 30.4362C51.2594 30.6668 51.2825 30.8973 51.2594 31.151C51.814 32.1885 52.3224 33.2491 52.8076 34.3328C53.5471 35.9698 54.2865 37.5837 55.0259 39.2207C55.1184 39.4052 55.2339 39.6127 55.3956 39.728C55.4881 39.7972 55.7423 39.8202 55.8347 39.751C55.9502 39.6819 56.0195 39.4744 56.0427 39.336C56.0427 39.2207 55.9502 39.0824 55.8809 38.9441H55.9502Z" fill="white"/>
<path d="M128.738 24.6032C128.161 21.5828 126.682 18.4471 125.619 17.4326C124.718 16.5565 123.678 17.0407 123.724 18.5163L124.071 33.9411L132.944 33.7336C136.133 33.6644 136.271 40.3047 133.083 40.3739L124.209 40.5814L124.695 62.2545C124.764 65.8052 117.393 66.0358 117.3 62.4851L116.815 40.7197L108.08 40.9042C104.684 40.9733 104.753 34.3331 107.942 34.2639L116.676 34.0794L116.307 17.7093C116.145 10.9307 122.939 9.45507 127.699 10.7462C132.389 12.0374 135.393 17.7324 135.971 23.6348C136.271 26.955 129.409 27.9234 128.738 24.6032Z" fill="#3872DD"/>
<path d="M143.019 60.6636L141.979 14.7119C141.863 9.9853 149.258 9.24749 149.327 13.0749L150.39 60.6405C150.459 64.2604 143.088 64.3526 142.996 60.6405L143.019 60.6636Z" fill="#3872DD"/>
<path d="M183.11 34.9789C187.061 36.8926 189.072 40.6047 189.257 45.1699C189.349 53.0552 186.738 58.2199 181.4 60.6178C177.148 62.4162 172.065 62.739 166.311 61.0328C161.181 59.5341 158.57 55.2225 158.27 48.7436C158.108 44.6857 158.709 41.5039 160.211 39.106C161.713 36.7081 164.023 34.8867 167.12 34.0105C172.481 32.4888 177.888 32.4427 183.11 34.9789ZM181.909 46.8991C181.793 41.6653 179.667 39.1291 173.521 39.1982C167.905 39.2444 165.664 42.0342 165.641 47.4064C165.549 53.3088 167.975 56.214 173.682 56.1448C179.367 56.0987 181.885 52.7785 181.909 46.8761V46.8991Z" fill="#3872DD"/>
<path d="M120.974 68.1113C121.506 68.3419 121.968 68.6647 122.176 69.1258C122.754 70.3709 122.453 71.7773 121.275 72.6074C120.558 73.1146 119.727 73.2299 118.04 73.2299V77.2417C118.04 77.9565 116.653 77.9565 116.653 77.2417V68.5955C116.653 68.0422 116.954 67.7424 117.531 67.7424C119.288 67.6963 120.443 67.8808 120.998 68.1344L120.974 68.1113ZM120.605 71.4545C121.136 70.9242 121.205 70.2787 120.928 69.7714C120.697 69.3564 120.235 69.1719 119.703 69.0797C119.334 69.0336 118.987 68.9875 118.386 68.9875C118.155 68.9875 118.04 69.1028 118.04 69.3564V71.9848C119.195 72.031 120.119 71.9848 120.605 71.4776V71.4545Z" fill="#3872DD"/>
<path d="M128.97 72.3537C128.9 75.4894 128.23 77.2648 126.936 77.6567C126.335 77.8181 125.735 77.7951 125.157 77.6567C123.817 77.2878 123.147 75.5125 123.147 72.3537C123.1 71.247 123.17 69.9097 123.355 68.388C123.424 67.6732 124.787 67.6963 124.695 68.4572C124.556 69.7483 124.51 71.0164 124.533 72.3076C124.579 74.3135 124.672 75.5586 125.273 76.2272C125.642 76.6192 126.497 76.6422 126.844 76.2272C127.445 75.5355 127.537 74.2444 127.56 72.2846C127.56 70.9703 127.56 69.6792 127.398 68.4341C127.306 67.6502 128.669 67.6732 128.739 68.3188C128.924 69.7483 128.97 71.0856 128.947 72.3537H128.97Z" fill="#3872DD"/>
<path d="M135.208 69.6561C135.439 70.6475 135.255 71.5237 134.631 72.3076C135.232 72.6304 135.578 72.9763 135.786 73.7832C135.948 74.4288 135.925 75.0975 135.74 75.7661C135.624 76.2272 135.37 76.5731 135.093 76.8497C134.654 77.2417 134.145 77.4723 133.406 77.5414C132.898 77.5876 132.204 77.5876 131.373 77.5414V77.7028C131.373 78.6251 129.94 78.5098 129.94 77.7028V68.9414C129.963 68.2035 130.402 67.7424 131.257 67.7655C133.614 67.7655 134.931 68.4111 135.208 69.6561ZM131.349 69.5408V75.9505C131.349 76.1811 131.488 76.2733 131.719 76.3195C132.043 76.3656 132.805 76.3886 133.221 76.3195C134.03 76.2042 134.469 75.8583 134.515 74.8669C134.538 74.1521 134.446 73.6449 134.03 73.3913C133.73 73.2068 133.452 73.1838 133.198 73.2068C132.782 73.2529 132.459 73.3221 132.112 73.3913C131.488 73.4835 131.303 72.3076 131.881 72.1923L132.805 72.0309C133.406 71.9157 133.683 71.5929 133.891 70.8781C134.053 70.2325 133.845 69.6331 133.36 69.3564C132.851 69.1028 132.389 69.0336 131.719 69.0566C131.442 69.0566 131.373 69.1719 131.373 69.5178L131.349 69.5408Z" fill="#3872DD"/>
<path d="M145.029 72.9069L146.97 74.8206L148.126 73.3219L148.934 74.0136L147.756 75.6506L149.188 77.1954L148.518 78.0024L147.178 76.5499C146.138 77.7718 145.098 78.0485 143.966 78.0485C142.395 78.0485 140.985 77.1493 140.985 75.4201C140.985 73.9906 141.887 73.2067 143.365 72.6764C140.708 70.9932 141.563 68.042 144.567 68.042C147.548 68.042 147.64 71.316 145.098 72.9069H145.029ZM143.92 76.8957C144.867 76.8957 145.607 76.6421 146.369 75.7198L144.151 73.4142C142.949 73.9445 142.187 74.3595 142.187 75.4893C142.187 76.4576 143.042 76.8957 143.92 76.8957ZM144.498 69.1718C142.695 69.1718 142.279 70.901 144.267 72.1691C145.676 71.316 146.254 69.1718 144.498 69.1718Z" fill="#3872DD"/>
<path d="M159.425 68.6189C159.703 68.9186 159.425 69.495 158.894 69.2645C158.57 69.1261 158.131 69.0108 157.669 69.0339C157.299 69.0339 156.953 69.08 156.675 69.2184C156.167 69.4489 155.867 69.8178 155.682 70.3712C155.104 71.9851 155.081 74.4291 155.659 75.6972C155.936 76.2967 156.306 76.5503 156.953 76.6426C157.415 76.6887 157.808 76.6887 158.316 76.4581C158.778 76.2506 159.102 76.02 159.31 75.7664C159.656 75.3514 160.118 75.4667 160.026 75.8817C159.726 77.0115 159.009 77.6801 157.669 77.8646C157.138 77.9337 156.583 77.9107 156.005 77.7493C154.781 77.4495 153.787 75.8356 153.88 72.9766C153.995 69.5411 155.174 67.858 157.253 67.835C158.316 67.835 158.94 68.0655 159.448 68.6189H159.425Z" fill="#3872DD"/>
<path d="M165.595 77.3796L164.809 73.9673H162.776L161.944 77.4719C161.828 78.0022 160.442 77.9561 160.581 77.3566L162.568 69.0332C162.937 67.4423 164.671 67.4653 165.04 69.0332L166.935 77.2182C167.074 77.8177 165.757 78.1174 165.595 77.4027V77.3796ZM163.076 72.7222H164.509L163.885 70.0707C163.816 69.794 163.769 69.771 163.7 70.0707L163.076 72.7222Z" fill="#3872DD"/>
<path d="M173.151 69.2185H169.407V72.0775H172.804C173.52 72.0775 173.474 73.2534 172.804 73.2534H169.407V77.3574C169.407 78.0261 168.021 78.0261 168.021 77.3574V69.1954C167.443 69.1954 167.466 68.0195 168.067 68.0195H173.174C173.728 68.0195 173.728 69.2185 173.174 69.2185H173.151Z" fill="#3872DD"/>
<path d="M179.667 69.2873H175.924V72.0771H179.367C180.245 72.0771 180.268 73.2991 179.367 73.2991H175.924V76.4348C177.102 76.3656 178.35 76.3656 179.667 76.4348C180.522 76.4348 180.499 77.6798 179.644 77.6568C178.743 77.6337 177.31 77.6107 175.323 77.7029C174.792 77.726 174.537 77.5646 174.537 77.0343V69.1489C173.96 69.195 173.96 67.9961 174.56 67.9961H179.69C180.476 67.9961 180.476 69.2642 179.69 69.2411L179.667 69.2873Z" fill="#3872DD"/>
<path d="M92.7375 48.7899C93.5462 48.6285 94.3781 48.444 95.1868 48.2596C97.3589 47.7984 99.092 46.6686 100.455 44.9164C103.459 41.0659 103.852 34.7945 99.3231 30.898C98.0753 29.8374 96.7119 29.0535 95.0713 28.8229C93.3614 28.5693 91.4203 29.4685 90.5423 31.4052C90.4729 31.5436 90.496 31.7972 90.5885 31.9125C90.6809 32.0278 90.912 32.0508 91.0968 32.0508C91.2586 32.0508 91.4203 31.9586 91.5821 31.9125C92.9916 31.4052 94.2394 31.7511 95.2793 32.7425C96.8737 34.2642 97.2434 36.1549 96.6195 38.2069C95.9725 40.3281 94.3781 41.5962 92.3908 42.4032C91.0506 42.9335 89.5949 43.0257 88.1622 42.8413C87.9773 42.8182 87.7694 42.7952 87.5845 42.8182C87.3303 42.8182 87.1224 42.9335 87.0762 43.2332C87.0299 43.4868 87.1917 43.6252 87.3997 43.7405C87.7925 43.971 88.2084 44.1555 88.5781 44.4091C88.9479 44.6627 89.3176 44.9394 89.5949 45.2853C89.8953 45.6311 89.8028 46.0231 89.3638 46.2306C89.1096 46.3459 88.8092 46.415 88.5319 46.415C86.614 46.415 84.8347 46 83.2634 44.8933C82.2698 44.2016 81.438 43.3024 80.583 42.4262C79.5201 41.3426 78.3416 40.4434 76.8858 39.9131C75.0603 39.2444 73.3273 39.3828 71.7098 40.5356C71.5711 40.6278 71.4094 40.7431 71.1552 40.9045C71.2245 40.5587 71.2476 40.3281 71.3169 40.0975C71.5018 39.5211 71.6636 38.9678 71.8715 38.3914C72.5416 36.6852 72.0333 35.2787 70.8317 34.0106C69.7919 32.95 68.521 32.2353 67.1576 31.705C64.2461 30.5291 61.1728 30.091 58.0533 30.0449C57.4987 30.0449 56.9442 30.0449 56.4127 30.091C56.1585 30.091 55.9274 30.2063 55.9274 30.506C55.9274 30.8288 56.1585 30.9441 56.4589 30.9441C56.7362 30.9441 57.0366 30.9441 57.3139 30.9441C60.6413 30.9441 63.8995 31.3591 66.9959 32.5811C68.3361 33.1114 69.5608 33.8492 70.5082 34.979C71.6404 36.3624 71.5249 37.7919 70.1616 39.0139C70.1616 38.9678 70.1616 38.9217 70.1616 38.8986C70.8548 37.2155 70.3464 35.9474 69.0524 34.9098C67.7353 33.8262 66.164 33.2728 64.5234 32.8347C64.4541 32.8347 64.3616 32.7886 64.3154 32.8347C64.1537 32.927 63.9688 32.9961 63.8995 33.1345C63.8533 33.2267 63.9457 33.4803 64.0612 33.5495C64.2692 33.6878 64.5465 33.757 64.8007 33.8262C65.9791 34.149 67.1345 34.564 68.1281 35.3018C68.5441 35.6015 68.9138 35.9935 69.2373 36.4085C69.6763 36.9849 69.7225 37.6535 69.4221 38.2991C68.96 39.3367 68.1281 39.9361 66.9959 40.0975C65.8636 40.2589 64.9162 39.8439 64.223 38.9447C63.8302 38.4375 63.5529 37.838 63.1832 37.3077C62.6517 36.5468 62.1202 35.7629 61.4963 35.0943C60.6876 34.2412 59.7864 34.4948 59.3936 35.5785C59.3473 35.7168 59.3242 35.8551 59.2549 35.9935C59.1163 36.3163 58.9545 36.616 58.7234 37.0541C58.3999 36.7082 58.1689 36.4777 57.984 36.224C57.7067 35.786 57.4294 35.3248 57.2215 34.8406C56.2741 32.8347 55.3498 30.8288 54.4255 28.7998C53.2008 26.1022 51.8375 23.4738 49.9658 21.1681C49.365 20.4303 48.7411 19.7617 47.863 19.3697C47.2391 19.093 46.7769 19.2314 46.4997 19.8308C46.3379 20.1767 46.2917 20.5456 46.1993 20.9145C46.1299 21.1681 46.0606 21.4448 45.9913 21.7907C45.7833 21.5831 45.6216 21.4909 45.5522 21.3526C45.0439 20.5917 44.4662 19.8308 44.0272 19.0239C42.1555 15.5654 40.3531 12.0608 38.5045 8.60231C38.389 8.3948 38.3197 8.14118 38.1579 7.97979C38.0193 7.84145 37.7882 7.70311 37.6264 7.72617C37.4878 7.74922 37.3491 8.0259 37.326 8.21035C37.2798 8.46397 37.326 8.74065 37.326 8.99427C37.7651 12.2683 38.4352 15.4732 39.5674 18.5858C40.538 21.2142 41.7858 23.7043 43.4033 25.9869C43.6343 26.3097 43.9116 26.6095 44.212 26.8861C44.8821 27.4626 45.4598 27.3012 45.7371 26.4711C45.8758 26.0792 45.922 25.6411 46.0375 25.2261C46.0837 25.0647 46.153 24.8802 46.1993 24.7419C46.7769 24.7419 47.1004 25.1108 47.4008 25.4336C48.0016 26.1022 48.6024 26.7939 49.1339 27.5317C50.6128 29.676 51.7912 32.0047 52.8542 34.3795C53.5936 36.0165 54.333 37.6305 55.0956 39.2675C55.188 39.452 55.3036 39.6595 55.4653 39.7747C55.5577 39.8439 55.8119 39.867 55.9043 39.7978C56.0199 39.7286 56.0892 39.5211 56.1123 39.3828C56.1123 39.2675 56.0199 39.1292 55.9506 38.9908C55.2111 37.3769 54.4255 35.7629 53.7091 34.1259C52.6462 31.705 51.4215 29.3532 49.9658 27.1398C49.2725 26.0792 48.4869 25.0647 47.4702 24.3038C46.3148 23.4507 45.275 23.7505 45.1363 25.3183C45.1132 25.6411 45.0208 25.9408 44.9515 26.3328C44.7666 26.1944 44.6511 26.1483 44.5817 26.0561C44.3738 25.8255 44.1889 25.5719 44.0041 25.3183C42.8256 23.566 41.8551 21.7215 41.0001 19.8078C40.122 17.7788 39.5674 15.6576 39.0822 13.5134C38.8973 12.6372 38.6894 11.7841 38.5045 10.908C38.5507 10.908 38.5969 10.8849 38.6432 10.8619C38.9435 11.3922 39.2439 11.9225 39.5212 12.4758C40.8152 14.8967 42.1093 17.3177 43.4033 19.7156C43.7499 20.3381 44.1427 20.9376 44.5586 21.514C44.8359 21.8829 45.1825 22.2287 45.5754 22.5054C46.153 22.9204 46.7076 22.6899 46.9156 22.0212C47.0311 21.6293 47.0542 21.2142 47.1467 20.8223C47.1929 20.6148 47.2622 20.4073 47.3546 20.1306C48.3482 20.4995 48.9259 21.1912 49.5036 21.9059C50.7283 23.4507 51.7681 25.1108 52.6 26.8861C53.9171 29.6529 55.1649 32.4197 56.482 35.1865C56.7824 35.8321 57.1521 36.4546 57.5912 37.008C58.5617 38.1838 59.4629 38.0225 60.0406 36.6391C60.1792 36.2932 60.3178 35.9474 60.4796 35.6015C61.1728 35.7629 61.4963 36.2471 61.8198 36.7082C62.3282 37.446 62.7672 38.1838 63.2294 38.9447C63.8764 40.0284 64.7776 40.7431 66.0485 40.9737C66.2102 40.9967 66.3951 41.0429 66.5568 41.089C66.2333 41.2965 65.8867 41.4348 65.5632 41.527C64.2692 41.8959 62.9521 42.1035 61.6119 42.2418C57.5912 42.6107 53.7554 42.0573 50.1044 40.282C49.157 39.8209 48.2789 39.2444 47.5857 38.4375C46.7307 37.423 46.7307 36.3624 47.655 35.4401C48.0941 35.002 48.6255 34.7023 49.1339 34.3334C49.2725 34.2412 49.4343 34.1951 49.5729 34.1028C49.7578 33.9645 49.8502 33.78 49.7347 33.5495C49.6191 33.3189 49.4112 33.2497 49.2032 33.342C48.7411 33.5495 48.2789 33.757 47.8861 34.0567C46.4997 35.0482 45.6678 36.2932 46.3148 38.2069C45.6216 37.5152 45.3905 36.8005 45.5754 35.9704C45.7602 35.2096 46.1761 34.564 46.7538 34.0567C47.655 33.2497 48.6949 32.6733 49.8271 32.2814C50.0351 32.2122 50.243 32.143 50.4279 32.0508C50.659 31.9355 50.8207 31.7511 50.7283 31.4744C50.6359 31.1516 50.3586 31.1055 50.0813 31.1977C49.6885 31.313 49.2956 31.4513 48.949 31.6358C48.1865 32.0047 47.4239 32.4197 46.6845 32.8117C46.2455 32.535 45.8064 32.2583 45.3674 31.9586C45.5754 30.1371 45.0901 28.5693 43.6574 27.3934C42.2017 26.1944 40.538 26.0792 38.828 26.7247C37.6958 24.0732 34.2528 22.8513 31.3874 25.18C30.8329 24.8802 30.2552 24.6035 29.562 24.7188C28.8456 24.8341 28.4297 25.3644 27.9445 25.8025C26.3269 25.2491 24.825 25.3875 23.4847 26.425C22.1445 27.4626 21.7055 28.9151 21.8672 30.506C21.7979 30.5521 21.7748 30.5752 21.7517 30.5752C21.6361 30.6213 21.5206 30.6444 21.4051 30.6674C19.4872 31.2208 17.939 32.3044 17.0378 34.1259C16.0442 36.1779 15.9748 38.2069 17.523 40.0745C17.731 40.3281 17.939 40.6048 18.1007 40.8815C18.6322 41.7115 18.7708 42.6107 18.4473 43.556C18.3087 43.971 18.0776 44.3861 17.8928 44.778C17.731 45.1469 17.523 45.5158 17.4075 45.8847C17.0609 47.0145 17.4075 47.9829 18.4242 48.6054C18.5629 48.6976 18.7246 48.7668 18.8633 48.859C19.3947 49.2049 19.5334 49.6429 19.2561 50.1963C19.1405 50.4499 18.9326 50.6805 18.817 50.9341C18.6322 51.28 18.4242 51.6489 18.3087 52.0178C18.0314 52.8939 18.4473 53.7009 19.3023 54.0467C19.4641 54.1159 19.6027 54.139 19.7876 54.2081C19.7876 54.4156 19.8338 54.6001 19.8338 54.7845C19.8338 57.3669 19.8338 59.9262 19.8338 62.5085C19.8338 63.9149 19.7182 65.3214 20.2035 66.6817C20.2035 66.7509 20.2035 66.8201 20.2035 66.8892C20.3652 67.2351 20.4808 67.604 20.6656 67.9498C20.966 68.4571 21.4744 68.826 21.9596 69.1718C22.029 69.2179 22.0983 69.264 22.1676 69.3102L23.1612 69.8635V69.9096C23.1612 69.9096 23.2999 69.9557 23.3923 70.0019C23.8313 70.1863 24.2011 70.3016 24.7556 70.463C25.0098 70.5322 25.264 70.6244 25.5413 70.6936C25.6106 70.6474 25.6799 70.6244 25.7493 70.6474C26.2114 70.7166 26.6735 70.8088 27.1357 70.9011C27.1357 70.9011 27.1357 70.9011 27.1357 70.9472C27.852 70.9702 28.5683 71.0163 29.2385 71.2008C29.3771 71.2469 29.5157 71.293 29.6544 71.3391C30.1165 71.3622 30.5325 71.3853 30.9715 71.4083C33.3516 71.5697 35.7085 71.5005 38.0424 71.0855C39.267 70.855 40.4917 70.5783 41.6471 70.1863C43.1953 69.656 44.628 68.9413 45.6678 67.627C48.2558 69.6099 51.306 69.1257 53.686 67.1659C54.0558 67.2812 54.4486 67.3965 54.8414 67.5118C56.5745 67.9268 58.3537 67.9268 60.1099 67.7423C62.3051 67.5348 64.3847 66.9353 66.1871 65.6211C66.3489 65.5058 66.6262 65.4828 66.8341 65.4597C67.3194 65.4367 67.8277 65.4828 68.313 65.3906C69.5377 65.16 70.4389 64.4452 71.1321 63.4538C71.3632 63.1541 71.548 63.0157 71.9408 63.0849C74.1129 63.4077 76.2619 63.3155 78.434 63.0157C82.3623 62.4624 85.9208 61.0098 89.2251 58.8194C91.1199 57.5744 92.6219 55.8913 94.3088 54.4387C94.9558 53.9084 95.4179 53.1706 95.3717 52.2714C95.3255 51.0263 94.3088 50.3116 93.1534 50.7266C92.7837 50.8649 92.414 51.0724 92.0905 51.303C91.5359 51.6719 90.9351 51.8103 90.2881 51.8794C89.7797 50.9572 89.8722 50.4499 90.6116 49.8505C91.2586 49.3202 91.998 48.9974 92.8068 48.836L92.7375 48.7899ZM44.0041 41.8498C44.3045 41.527 44.6511 41.2273 44.9746 40.9276C45.0439 40.9276 45.1132 40.9506 45.1825 40.9737C45.3443 42.1035 45.5291 43.2332 45.6447 44.363C45.6909 44.7319 45.5522 45.1008 45.4598 45.4697C45.3905 45.7925 45.2981 46.0922 45.5985 46.3228C45.922 46.5534 46.1761 46.3459 46.4303 46.1384C47.3777 45.3083 48.4638 44.7088 49.6885 44.4091C50.3124 44.2477 50.9363 44.2477 51.4908 44.6166C52.0223 44.9625 52.3458 45.4467 52.4151 46.0692C52.5076 46.83 52.3689 47.5448 51.9992 48.2134C51.1211 49.8735 49.6654 50.7497 47.8861 51.1647C46.2917 51.5336 44.8128 51.303 43.4726 50.3116C41.9706 49.1818 41.3005 47.3142 41.7858 45.4928C42.1555 44.0633 43.0335 42.9335 44.0041 41.8729V41.8498ZM65.1011 65.0908C63.8533 65.9439 62.4437 66.3589 60.9649 66.6356C58.8621 67.0045 56.7824 66.9815 54.7028 66.5434C54.5641 66.5203 54.4255 66.4512 54.1944 66.382C54.333 66.1284 54.4717 65.8978 54.5872 65.6903C55.2342 64.4683 55.0494 62.9235 54.1944 61.9321C54.102 61.8168 54.0095 61.7246 53.894 61.6323C53.6629 61.4479 53.455 61.5401 53.2701 61.7476C53.1084 61.9551 53.1546 62.1165 53.3163 62.301C54.3562 63.546 54.333 64.8603 53.2932 66.0822C51.8374 67.7884 49.1801 68.4571 47.3084 67.604C45.5291 66.797 44.6511 64.9986 45.0208 63.4308C45.0901 63.131 44.9746 62.9696 44.7204 62.8774C44.4662 62.7852 44.2813 62.9466 44.212 63.1541C44.1196 63.4769 44.0272 63.7997 44.0272 64.1224C44.0272 64.8833 44.2351 65.575 44.5817 66.2436C44.9052 66.8662 44.8821 67.1659 44.3276 67.604C43.7961 68.019 43.1953 68.411 42.5945 68.7337C40.7921 69.6791 38.8049 70.048 36.8177 70.3247C32.7739 70.878 28.7532 70.5091 24.8019 69.5407C23.9007 69.3332 23.0919 68.9413 22.3294 68.434C21.9828 68.2035 21.6824 67.8576 21.4744 67.5118C20.9429 66.6126 20.6194 65.6442 20.6425 64.5836C20.6425 60.9868 20.6425 57.3899 20.6425 53.7931C20.6425 53.6087 20.6425 53.4012 20.6425 53.2167C20.5732 52.8017 20.2266 52.7095 19.9262 53.0092C19.5334 53.355 19.1637 53.2859 19.0712 52.7786C19.025 52.525 19.0712 52.2022 19.2099 51.9486C19.3947 51.5566 19.6489 51.2108 19.8569 50.8419C20.527 49.6891 20.2728 48.7207 19.1637 48.029C19.025 47.9368 18.8633 47.8676 18.7477 47.7754C18.1931 47.3834 18.0083 46.9453 18.2163 46.2767C18.3318 45.8617 18.5398 45.4928 18.7015 45.1008C18.9095 44.6166 19.1868 44.1555 19.3485 43.6713C19.6951 42.5646 19.5565 41.504 18.8864 40.5356C18.6553 40.1898 18.4011 39.8209 18.1469 39.475C16.9454 37.9072 16.9685 36.224 17.8003 34.564C18.7015 32.7886 20.2266 31.7972 22.1676 31.3822C22.8146 31.2438 23.4385 31.3822 24.0855 31.5436C24.3166 31.6127 24.5477 31.6819 24.7787 31.728C25.0098 31.7741 25.1947 31.6819 25.2871 31.4283C25.3564 31.1747 25.264 30.9902 25.0329 30.921C24.4783 30.7596 23.9238 30.6213 23.3692 30.4599C23.2074 30.4138 23.0457 30.4138 22.8608 30.3907C22.6067 29.7682 22.7453 29.1687 22.9764 28.5923C23.6465 26.817 25.6337 25.8947 27.4361 26.5172C27.5054 26.5172 27.5747 26.5634 27.6441 26.5864C28.2911 26.817 28.3373 26.7939 28.7994 26.2406C29.4002 25.5028 29.9317 25.3875 30.8098 25.8255C30.7173 26.0331 30.6018 26.2406 30.5094 26.425C30.3707 26.7017 30.2321 26.9784 30.1396 27.2781C30.0472 27.5317 30.0472 27.8084 30.3476 27.9467C30.5787 28.062 30.8098 27.9006 30.9715 27.5317C30.9946 27.4626 31.0177 27.3934 31.0408 27.3242C31.5261 26.2406 32.2886 25.4105 33.4209 24.9955C34.9229 24.4422 36.7252 24.9955 37.6264 26.3097C37.8344 26.6095 37.9268 27.0014 38.0655 27.3473C38.2272 27.7853 38.3659 27.8776 38.8049 27.7162C39.036 27.624 39.2439 27.5317 39.475 27.4395C41.9244 26.5403 44.5124 28.4309 44.5355 30.9902C44.5355 31.3361 44.4893 31.705 44.4662 32.0508C44.42 32.5581 44.5355 32.7425 45.0439 32.8808C45.3905 32.9731 45.7371 33.0422 45.9682 33.3881C45.6909 33.78 45.4136 34.149 45.1594 34.5409C44.7435 35.1865 44.5586 35.9012 44.628 36.6621C44.7204 37.6074 44.3507 38.4375 44.1889 39.3367C44.1196 39.6825 43.8423 39.7747 43.5419 39.7517C42.9873 39.6825 42.5945 39.867 42.2248 40.282C41.7858 40.7662 41.0232 40.7892 40.4455 40.3973C40.2376 40.2589 40.0527 40.0514 39.8909 39.8439C39.4288 39.2214 39.2902 39.2214 38.8049 39.8439C38.5738 40.1437 38.3197 40.4434 38.0655 40.7201C36.9332 41.8498 35.1308 42.0573 33.7675 41.2504C33.1436 40.8815 32.6352 40.3973 32.3117 39.7286C32.2193 39.5442 32.15 39.3367 32.0345 39.1522C31.9189 38.8986 31.7572 38.668 31.4337 38.8064C31.1795 38.8986 31.087 39.1983 31.2026 39.5442C31.3181 39.8439 31.4799 40.1437 31.6416 40.4434C31.7341 40.6048 31.8265 40.7662 31.9189 40.9506C31.4337 41.2043 31.0177 41.1812 30.6249 40.8815C30.5325 40.8123 30.44 40.7431 30.3245 40.674C29.4926 40.1667 28.6377 40.3512 28.2217 41.2504C27.9907 41.7807 27.852 42.3801 27.8289 42.9796C27.7596 43.9249 27.8058 44.8933 27.7827 45.8386C27.7827 46.6225 27.6672 47.3603 27.0433 47.9368C26.9046 48.0751 26.766 48.1904 26.6042 48.3057C25.9803 48.6746 25.3102 48.5132 24.9174 47.9137C24.5708 47.3834 24.4783 46.807 24.617 46.2075C24.7094 45.7464 24.8943 45.3083 25.056 44.8472C25.3333 44.0633 25.5875 43.2563 25.3795 42.4032C25.1716 41.527 24.5939 40.9967 23.762 40.9045C23.2999 40.8584 22.907 40.9506 22.5604 41.2734C22.029 41.7576 21.6593 42.2879 21.6593 43.1179C21.6824 46.0922 21.613 49.0665 21.613 52.0639C21.613 55.3379 21.5899 58.5889 21.5668 61.8629C21.5668 63.0388 21.8441 64.1224 22.8146 64.8603C23.3692 65.2983 24.0393 65.6211 24.6863 65.8747C28.0831 67.0737 31.5954 67.3042 35.1539 66.9353C37.095 66.7278 38.9898 66.405 40.769 65.575C41.2312 65.3444 41.6702 65.0447 42.1093 64.768C42.2479 64.6758 42.3634 64.5605 42.479 64.4452C42.6407 64.2608 42.7332 64.0072 42.5252 63.7997C42.3403 63.5921 42.0861 63.5921 41.8782 63.7766C39.9141 65.4136 37.5109 65.7595 35.1077 66.0361C31.9189 66.405 28.7532 66.2436 25.6799 65.2983C25.0791 65.1139 24.4552 64.8603 23.9007 64.5605C22.9764 64.0763 22.468 63.3155 22.468 62.2549C22.468 59.8109 22.4449 57.3438 22.468 54.8998C22.468 51.3952 22.5142 47.8906 22.5604 44.3861C22.5604 43.9019 22.6067 43.4407 22.6529 42.9565C22.676 42.7029 22.7684 42.4262 22.907 42.2187C23.2537 41.6884 24.0162 41.7346 24.3397 42.2649C24.5708 42.6568 24.5939 43.0949 24.5015 43.5099C24.409 43.948 24.2242 44.363 24.1086 44.8011C23.9469 45.4697 23.7389 46.1383 23.6696 46.807C23.6003 47.4756 23.8313 48.0751 24.2704 48.6054C25.1716 49.666 26.6042 49.7121 27.6441 48.7668C28.3373 48.1212 28.6839 47.2912 28.707 46.3459C28.7301 45.5389 28.707 44.7319 28.707 43.9249C28.7301 43.2793 28.7532 42.6338 28.8919 42.0112C29.0305 41.3195 29.5157 41.1812 30.0472 41.6193C30.7173 42.1957 31.4337 42.2649 32.1731 41.8959C32.5428 41.7115 32.797 41.7807 33.0974 41.9882C33.7906 42.4493 34.5532 42.6799 35.385 42.726C36.6097 42.7721 37.6958 42.3801 38.5969 41.5732C38.8511 41.3426 39.0822 41.112 39.3364 40.8584C39.5443 40.9967 39.7292 41.1351 39.9372 41.2504C40.8615 41.8498 41.8782 41.8037 42.7332 41.1351C43.0336 40.8815 43.3339 40.674 43.7961 40.8584C43.3802 41.3656 42.9411 41.8498 42.5714 42.3571C41.8551 43.3024 41.2774 44.3169 40.977 45.4467C40.33 47.9137 41.6702 50.5652 43.981 51.718C47.216 53.332 51.3291 51.5566 52.7155 49.0896C53.2008 48.2365 53.4781 47.3373 53.4087 46.3689C53.2932 44.5475 51.8606 43.3485 50.0582 43.556C49.0646 43.6713 48.1865 44.0633 47.3084 44.5244C47.1467 44.6166 46.9849 44.7088 46.8232 44.778C46.5228 42.9796 46.1993 41.2043 45.8989 39.3828C46.0375 39.452 46.1299 39.475 46.1761 39.5211C47.7706 41.0198 49.7347 41.8037 51.7912 42.4032C54.8876 43.2793 58.0533 43.4407 61.2421 43.2563C63.784 43.0949 66.2564 42.5646 68.5672 41.4348C69.1911 41.1351 69.7456 40.7431 70.3927 40.3742C70.1847 41.504 69.9767 42.5876 69.7919 43.6944C69.5377 45.17 69.3066 46.6456 69.0524 48.1443C68.96 48.6285 68.8676 49.1357 68.6827 49.5968C67.9664 51.4183 66.5106 52.2944 64.6389 52.5711C63.6915 52.7095 62.7441 52.8247 61.8198 53.0553C60.7569 53.332 59.694 53.6317 58.7003 54.0698C57.3139 54.6693 56.3896 55.6838 56.2972 57.2516C56.2278 58.4736 56.6669 59.465 57.6836 60.2259C58.8159 61.0559 60.0868 61.2173 61.427 61.0559C63.2525 60.8484 64.9624 60.2951 66.6262 59.5111C66.8341 59.4189 67.0652 59.3036 67.2732 59.2114C67.3194 59.2114 67.3656 59.2114 67.458 59.2114C67.458 59.3267 67.4349 59.4189 67.4118 59.5342C67.2501 60.5256 67.0421 61.494 66.9265 62.4854C66.7879 63.6844 66.164 64.5836 65.1935 65.2292L65.1011 65.0908ZM69.7456 48.6976C69.9305 47.7062 70.0691 46.7148 70.254 45.7464C70.3927 44.9625 70.7624 44.778 71.4556 45.193C72.7496 45.977 73.5121 47.1759 73.9281 48.5823C74.3902 50.081 74.0436 51.5105 73.1655 53.1936C72.8189 53.5856 72.3106 54.3004 71.6636 54.8998C69.2373 57.0902 66.4413 58.635 63.2987 59.5803C62.1664 59.9262 61.0111 60.1106 59.8326 60.0184C59.278 59.9723 58.7465 59.8109 58.2844 59.5111C56.7824 58.5658 56.5976 56.606 57.9147 55.4301C58.5386 54.8537 59.3242 54.554 60.1099 54.2773C61.635 53.747 63.2294 53.5625 64.8007 53.332C66.3951 53.1014 67.7353 52.3636 68.7289 51.0724C69.2604 50.3808 69.5608 49.5738 69.7225 48.7207L69.7456 48.6976ZM69.6532 63.523C69.0062 64.2147 68.1512 64.5605 67.019 64.5836C67.6198 63.6152 67.7122 62.6238 67.874 61.6323C68.0126 60.6409 68.2206 59.6725 68.4285 58.7042C68.4516 58.5428 68.5672 58.3353 68.7058 58.243C69.6301 57.6205 70.5775 57.021 71.5249 56.3985C71.8253 56.7674 71.8715 57.2055 71.8946 57.6436C72.0564 59.9262 71.2476 61.886 69.6763 63.523H69.6532ZM73.258 54.6001C74.4133 53.0323 75.1528 51.4414 75.0372 49.5738C74.9217 47.7062 74.0436 46.1614 72.6803 44.8011C72.9576 44.8241 73.258 44.8472 73.5353 44.9164C74.552 45.17 75.4301 45.7003 76.1464 46.4611C77.0707 47.4526 77.9025 48.5362 78.5727 49.7121C79.2659 50.911 80.0053 52.0639 80.9989 53.0553C81.0682 53.1245 81.0914 53.2167 81.2069 53.355C78.6651 54.4848 76.0771 54.8998 73.258 54.6001ZM89.1789 51.8333C88.4164 51.7872 87.7925 51.5566 87.1686 51.28C85.6204 50.6113 84.3264 49.5507 83.1017 48.3979C82.7089 48.029 82.2929 47.6601 81.8539 47.3142C81.6459 47.1528 81.4149 47.1067 81.23 47.3142C81.0451 47.5448 81.0914 47.7523 81.2993 47.9368C82.9168 49.3432 84.4188 50.9111 86.406 51.8333C87.6307 52.4097 88.8785 52.8017 90.265 52.6864C91.0737 52.6172 91.8132 52.3867 92.5064 51.9716C92.8068 51.7872 93.1303 51.6027 93.4769 51.5105C94.1008 51.3491 94.5398 51.7641 94.4474 52.3636C94.3781 52.7095 94.2163 53.0323 94.0084 53.3089C93.0841 54.5309 91.7438 55.0612 90.3112 55.3148C87.5152 55.776 84.9734 55.0843 82.6858 53.355C81.2762 52.2714 80.3057 50.8419 79.3814 49.3432C78.642 48.1212 77.8563 46.9223 76.8627 45.8847C75.2452 44.2016 73.3273 43.533 71.0166 43.9941C70.901 43.9941 70.7855 44.0171 70.6006 44.0633C70.6006 42.9796 70.9703 42.1496 71.756 41.4809C73.3966 40.0975 75.4301 39.89 77.4866 41.0198C78.4109 41.527 79.2197 42.2187 79.9591 42.9565C80.791 43.7635 81.5997 44.6397 82.5009 45.3544C84.3033 46.7839 86.406 47.2912 88.6706 47.1989C89.0403 47.1989 89.4331 47.0606 89.7566 46.8992C90.5654 46.4842 90.8195 45.6081 90.3112 44.8472C90.0801 44.5013 89.7566 44.2016 89.41 43.8327C89.6411 43.7866 89.8259 43.7405 90.0108 43.7405C92.4602 43.6252 94.4705 42.6107 96.088 40.7892C98.0521 38.5758 98.4912 34.7254 95.8801 32.1661C95.0482 31.3591 94.0546 30.8519 92.8761 30.8288C92.5988 30.8288 92.2984 30.8288 91.8594 30.8288C92.6219 30.1371 93.3845 29.7221 94.3319 29.699C95.5565 29.6529 96.6195 30.091 97.6131 30.7596C101.287 33.2497 102.674 37.3538 101.218 41.5501C100.686 43.0718 99.8314 44.363 98.6992 45.4928C97.6362 46.5303 96.3422 47.1067 94.9327 47.4526C94.0546 47.6831 93.1534 47.7984 92.2753 48.029C91.6745 48.1904 91.0968 48.4209 90.5654 48.7207C89.3638 49.3663 88.6706 50.3346 89.1096 51.8333H89.1789Z" fill="#3872DD"/>
<path d="M90.3576 35.5093C90.0572 35.371 89.7568 35.1173 89.5488 34.8407C89.3177 34.5179 89.2022 34.1259 89.0636 33.7339C88.8787 33.2036 88.7401 32.6272 88.5552 32.0969C88.1393 30.9902 87.446 30.091 86.3831 29.5376C86.0134 29.3763 85.6437 29.1918 85.274 29.0765C82.27 28.1773 79.682 29.1687 77.2788 30.898C77.0708 31.0594 76.9322 31.2438 77.0477 31.4975C77.1864 31.7972 77.4637 31.7511 77.741 31.6819C78.1338 31.5666 78.5266 31.4052 78.9194 31.4052C80.9991 31.313 82.7553 32.0278 84.1186 33.6417C84.8118 34.4717 85.274 35.4401 85.7361 36.4085C86.1983 37.3999 86.6835 38.3914 87.2381 39.3136C87.7233 40.1206 88.4859 40.6278 89.4102 40.8584C92.3448 41.5962 94.5631 39.2906 94.3782 36.5699C94.2858 35.2096 93.4771 34.2181 92.3217 33.9414C91.9982 33.8492 91.6054 33.7339 91.3743 34.0337C91.2588 34.1951 91.305 34.5179 91.3281 34.7484C91.3743 35.3479 90.9353 35.7399 90.3807 35.5093H90.3576ZM92.1599 35.1634C92.1599 35.1634 92.2062 35.0251 92.2524 34.9329C92.8532 35.002 93.1536 35.4401 93.3153 35.9243C93.7081 37.0771 93.5002 38.1608 92.6914 39.06C91.3743 40.5817 89.2022 40.4895 88.0006 38.8755C87.5616 38.2991 87.2381 37.6074 86.9146 36.9619C86.4293 36.0165 86.0134 35.002 85.4819 34.0798C84.3266 32.0969 82.5935 30.898 80.2828 30.5521C80.1441 30.5521 80.0055 30.506 79.8668 30.483C79.8668 30.4369 79.8437 30.3907 79.8206 30.3446C81.8079 29.5607 83.8182 29.1457 85.8747 30.2524C86.6142 30.6444 87.1919 31.1977 87.4923 31.9816C87.8158 32.8347 88.0931 33.6878 88.4397 34.5179C88.6245 34.979 88.8556 35.4401 89.2022 35.786C90.3345 37.031 91.9289 36.3624 92.1599 35.1404V35.1634Z" fill="#3872DD"/>
<path d="M23.6463 22.2976C24.1546 22.5974 24.8478 22.7126 25.5411 22.5974C26.5809 22.436 27.5976 22.2285 28.6143 21.9748C30.2318 21.5829 31.8494 21.3293 33.49 21.6982C33.8828 21.7904 34.2525 21.9979 34.6454 22.0901C34.8071 22.1362 35.0613 22.0901 35.1537 21.9518C35.2461 21.8365 35.1999 21.6059 35.1768 21.4445C35.1768 21.3293 35.0382 21.2601 34.9689 21.1679C32.6581 18.3089 29.6079 17.2483 26.0263 17.548C25.1482 17.6172 24.2933 17.9169 23.5307 18.4011C22.0287 19.3464 22.0287 21.3754 23.6231 22.2746L23.6463 22.2976ZM23.9235 19.2542C24.4781 18.9544 25.0789 18.6778 25.7028 18.5164C27.459 18.1013 29.1689 18.4472 30.8326 19.0697C31.78 19.4156 32.635 19.9459 33.3051 20.7298C31.2024 20.4301 29.2382 20.9142 27.2741 21.3984C26.6271 21.5598 25.957 21.652 25.31 21.7212C24.9634 21.7443 24.5937 21.6982 24.247 21.5829C23.7156 21.4215 23.4152 21.0295 23.3459 20.4762C23.2996 19.9689 23.4845 19.5078 23.9235 19.2542Z" fill="#3872DD"/>
<path d="M70.0924 31.2901C70.1155 31.659 70.4159 31.8435 70.6701 31.7743C70.9474 31.7051 71.0398 31.4976 70.9474 31.0826C70.6701 29.607 70.9936 28.2466 71.6406 26.8402C71.8486 26.5635 72.1028 26.2177 72.4032 25.9179C73.1888 25.134 74.1362 24.6729 75.2454 24.5806C75.7306 24.5345 76.1465 24.6959 76.4238 25.1109C76.7011 25.526 76.678 25.9871 76.4007 26.3791C76.1465 26.7249 75.8693 27.0477 75.5227 27.3013C75.1298 27.578 74.6908 27.7624 74.2517 27.97C73.3506 28.408 72.4725 28.9153 71.7793 29.6531C71.502 29.9298 71.502 30.2295 71.733 30.4139C71.9872 30.6215 72.2183 30.5292 72.4263 30.3217C73.235 29.4917 74.2517 28.9614 75.2916 28.4772C76.1003 28.1083 76.8167 27.578 77.2095 26.748C77.8103 25.526 77.2557 24.2348 75.9617 23.8428C75.6382 23.7506 75.2685 23.7045 74.8988 23.7276C74.0438 23.7737 73.2812 24.1195 72.588 24.6037C70.9705 25.7104 70.2542 27.3244 70.0231 29.192C69.9307 29.8836 70 30.6215 70.0462 31.3132L70.0924 31.2901Z" fill="#3872DD"/>
<path d="M104.43 49.2052C104.823 48.2599 104.684 47.3607 104.037 46.8534C103.39 46.3462 102.489 46.3692 101.657 47.0148C101.149 47.4068 100.71 47.891 100.271 48.3521C99.508 49.136 98.6762 49.7816 97.5208 49.8508C97.2897 49.8508 97.0818 49.943 97.0587 50.1966C97.0124 50.4733 97.1742 50.6347 97.4284 50.7269C98.9303 51.2803 100.479 51.5569 102.05 51.1189C102.974 50.8652 103.714 50.3119 104.245 49.5741C104.314 49.4127 104.384 49.2974 104.43 49.2052ZM102.928 49.7124C101.842 50.4041 100.687 50.6116 99.4387 50.2888C100.155 49.6202 100.802 48.9516 101.495 48.329C101.819 48.0293 102.165 47.7296 102.558 47.499C102.882 47.3145 103.228 47.2684 103.552 47.5912C103.852 47.891 103.875 48.2137 103.76 48.5826C103.598 49.0438 103.367 49.4588 102.928 49.7124Z" fill="#3872DD"/>
<path d="M22.3293 25.3878C22.3986 25.2726 22.3293 25.042 22.2831 24.8806C22.2831 24.7884 22.1676 24.7423 22.0982 24.6731C21.2895 23.8661 20.2959 23.3127 19.1867 23.0822C18.2393 22.8747 17.2688 22.8977 16.4369 23.5203C15.5126 24.212 15.5589 25.4801 16.5063 26.0334C16.9453 26.264 17.4074 26.3562 17.8927 26.2409C18.4242 26.1256 18.9556 25.9873 19.4871 25.8259C20.2728 25.6184 21.0353 25.3187 21.8672 25.5723C22.0058 25.6184 22.26 25.5031 22.3524 25.3878H22.3293ZM17.523 25.3878C17.0839 25.4801 16.7604 25.2495 16.668 24.9267C16.5756 24.5809 16.7373 24.3503 17.1995 24.1197C18.1469 23.6355 19.4871 23.843 20.4576 24.6731C19.4409 24.9267 18.4935 25.1803 17.523 25.3878Z" fill="#3872DD"/>
<path d="M78.8497 36.1321C78.5493 36.1782 78.2258 36.109 77.9485 36.0168C77.3708 35.8324 76.8394 35.6018 76.2617 35.4173C75.9844 35.3251 75.684 35.279 75.5222 35.6249C75.4298 35.8785 75.5916 36.0629 75.9844 36.2243C76.5159 36.4318 77.0473 36.6393 77.6019 36.8238C77.9023 36.916 78.2027 37.0313 78.5031 37.0544C79.5891 37.1696 80.4903 36.2013 80.2593 35.1637C80.1206 34.5643 79.7047 34.1953 79.2194 33.8956C79.0808 33.8264 78.9883 33.7803 78.8728 33.7342C77.0011 32.9042 74.8752 33.7573 73.743 35.1868C73.6968 35.2329 73.6274 35.3021 73.6274 35.3712C73.6274 35.5557 73.6274 35.7632 73.7199 35.8785C73.8585 36.0629 74.1127 36.0629 74.2976 35.8785C74.5286 35.671 74.7366 35.4404 74.9446 35.2098C75.8226 34.3798 76.8625 34.1031 78.0409 34.3337C78.5031 34.4259 78.8959 34.6565 79.1963 35.0254C79.5429 35.4635 79.3581 36.0168 78.8266 36.109L78.8497 36.1321Z" fill="#3872DD"/>
<path d="M47.9783 36.2239C47.6548 36.8925 47.7703 37.3998 48.0707 37.884C48.2094 38.0915 48.3942 38.2759 48.6484 38.1376C48.9488 37.9992 48.9719 37.7687 48.8333 37.492C48.6946 37.1923 48.556 36.8925 48.6946 36.5467C48.7639 36.3161 48.6946 36.0856 48.4173 36.0625C48.2325 36.0625 48.0476 36.1778 47.9552 36.2239H47.9783Z" fill="#3872DD"/>
<path d="M33.4904 58.6809C33.3748 58.5656 33.1669 58.4042 33.0513 58.4273C32.9358 58.4273 32.7971 58.6809 32.7509 58.8192C32.7047 59.0267 32.7509 59.2342 32.7509 59.4648C32.7278 60.4101 32.6354 61.3324 32.127 62.1394C31.8497 62.6005 31.4569 62.6927 31.0641 62.3008C30.7868 62.0241 30.5788 61.6552 30.4633 61.2632C30.3246 60.779 30.2784 60.2718 30.2553 59.7876C30.0936 55.868 30.2553 51.9253 30.5326 48.0057C30.5788 47.5215 30.625 47.0604 30.7175 46.5993C30.7868 46.2995 30.9023 45.9998 31.0641 45.7462C31.4338 45.2159 32.0577 45.2159 32.4274 45.7462C32.5661 45.9537 32.7047 46.2073 32.7509 46.4609C32.8434 46.9912 32.9358 47.5446 32.9589 48.0749C32.982 48.7666 32.9589 49.4583 32.9589 50.15C32.9589 50.3344 32.9589 50.5419 33.0282 50.7033C33.0744 50.8186 33.2593 50.98 33.3748 50.98C33.4904 50.98 33.6983 50.8417 33.7445 50.7264C33.837 50.5419 33.837 50.3114 33.837 50.1039C33.837 49.5274 33.8601 48.951 33.837 48.3977C33.7676 47.5907 33.6983 46.7837 33.5135 45.9998C33.4441 45.6309 33.2131 45.2389 32.9358 44.9622C31.9884 44.04 30.5095 44.4089 30.0474 45.7231C29.7701 46.507 29.6314 47.3371 29.5852 48.1671C29.4466 50.8647 29.331 53.5854 29.2848 56.3061C29.2617 57.6664 29.3079 59.0267 29.3772 60.364C29.4004 61.1479 29.6314 61.9088 30.0705 62.5774C30.7175 63.5458 32.127 63.9608 33.0513 62.2546C33.4904 61.3785 33.629 60.2257 33.6059 59.0498C33.6059 58.9115 33.5597 58.7501 33.4672 58.6578L33.4904 58.6809Z" fill="#3872DD"/>
<path d="M39.3824 61.0329C39.4979 59.2575 39.5904 57.4591 39.6828 55.6838C39.6828 55.384 39.6828 55.0612 39.6828 54.7615C39.6828 54.4618 39.5673 54.2312 39.2207 54.2543C38.9203 54.2543 38.8509 54.5079 38.8278 54.7615C38.8278 54.969 38.8047 55.1996 38.7816 55.4071C38.7123 57.0902 38.6199 58.7733 38.5505 60.4795C38.5505 60.7101 38.5274 60.9637 38.4812 61.1943C38.435 61.5632 38.227 61.7937 37.8573 61.886C37.5338 61.9551 37.2565 61.7707 37.0948 61.3787C37.0023 61.1712 36.933 60.9406 36.8868 60.687C36.7713 59.7878 36.6326 58.8886 36.6326 57.9894C36.6095 55.8913 36.6326 53.7931 36.6788 51.718C36.6788 50.3577 36.7251 48.9974 36.8406 47.6601C36.8868 47.0376 37.0948 46.392 37.3027 45.7925C37.4414 45.3775 37.8111 45.193 38.1346 45.2622C38.5274 45.3544 38.7585 45.6081 38.8278 46C38.874 46.2075 38.874 46.4381 38.9203 46.6456C38.9665 46.8762 39.1051 47.0376 39.3824 47.0145C39.6366 47.0145 39.7983 46.807 39.7752 46.5764C39.7059 46.1153 39.6366 45.6311 39.4517 45.2161C39.1282 44.4783 38.3426 44.2016 37.58 44.4552C37.0948 44.6166 36.7713 44.9394 36.494 45.3544C36.3785 45.7694 36.2167 46.1614 36.1474 46.5764C36.0318 47.3603 35.8932 48.1212 35.8701 48.9051C35.8008 51.8103 35.7546 54.7154 35.7314 57.6205C35.7314 58.635 35.8701 59.6725 36.0087 60.687C36.0781 61.1712 36.2398 61.6785 36.494 62.0704C37.1872 63.131 38.6661 62.9927 39.2207 61.8398C39.3362 61.6093 39.3824 61.3326 39.4055 61.079L39.3824 61.0329Z" fill="#3872DD"/>
<path d="M27.69 53.3092C27.69 53.3092 27.69 53.1708 27.69 53.1017C27.69 52.8711 27.5744 52.6866 27.3203 52.6636C27.0199 52.6636 26.8812 52.825 26.8581 53.1017C26.835 53.2861 26.835 53.4706 26.8119 53.6781C26.7888 55.1076 26.8119 56.5371 26.6964 57.9666C26.627 59.1425 26.4422 60.3414 26.2342 61.4942C26.0956 62.1859 25.5872 62.3243 24.9864 61.9554C24.7091 61.7709 24.6398 61.5173 24.6398 61.2175C24.6398 60.5259 24.5936 59.8342 24.5936 59.1425C24.5936 56.1912 24.6398 53.24 24.6398 50.2888C24.6398 50.1735 24.686 50.0121 24.6398 49.9429C24.5474 49.8046 24.3856 49.6201 24.247 49.6201C24.1083 49.6201 23.9466 49.8046 23.8541 49.9429C23.7848 50.0812 23.8079 50.2657 23.8079 50.4271C23.8079 53.7934 23.7848 57.1365 23.7617 60.5028C23.7617 60.9178 23.7617 61.3098 23.8079 61.7248C23.9004 62.4165 24.5243 62.9237 25.3792 63.0621C26.0493 63.1774 26.5346 62.9237 26.9736 62.1398C27.2509 61.5403 27.3896 60.7564 27.4358 59.9725C27.5513 57.7591 27.6206 55.5456 27.69 53.3322V53.3092Z" fill="#3872DD"/>
<path d="M52.8078 55.0148C52.9695 54.5998 53.2006 54.1848 53.293 53.7467C53.5241 52.5939 53.4548 51.4641 52.5536 50.5418C52.3687 50.3574 52.1839 50.2191 51.9297 50.4035C51.6755 50.588 51.6755 50.8416 51.8835 51.0721C52.2994 51.5563 52.5074 52.1327 52.5074 52.7783C52.5074 53.6545 52.207 54.4615 51.6293 55.1301C50.5664 56.3521 49.203 57.0207 47.6086 57.2282C46.6381 57.3666 45.6907 57.2282 44.8357 56.7671C43.3569 56.0062 42.4095 54.8534 42.2708 53.1703C42.2246 52.5939 42.2939 52.0405 42.5481 51.4872C42.6637 51.2335 42.7099 50.9799 42.4095 50.8185C42.1553 50.6802 41.9011 50.7955 41.7394 51.1644C41.6007 51.5102 41.4621 51.8791 41.4159 52.248C41.1617 54.1156 41.878 55.6143 43.2644 56.8132C46.6843 59.7183 51.4907 57.5049 52.8771 54.9687L52.8078 55.0148Z" fill="#3872DD"/>
<path d="M53.0388 56.1223C52.8078 55.984 52.5998 55.9378 52.4149 56.1915C52.2532 56.422 52.2763 56.6295 52.5074 56.814C52.9695 57.2059 53.2237 57.7132 53.293 58.2896C53.4085 59.1427 53.1544 59.9036 52.646 60.5722C51.2596 62.3476 49.3879 63.0854 47.2158 62.7395C44.6278 62.3245 43.2182 59.9727 43.7266 57.9438C43.819 57.5287 43.611 57.3212 43.1027 57.229C42.9871 57.5287 42.8716 57.7824 42.8254 58.059C42.5943 59.3041 42.8485 60.4569 43.611 61.4484C45.0437 63.3159 46.9616 64.0537 49.2954 63.6618C50.6357 63.4312 51.791 62.7856 52.7615 61.8864C54.0093 60.7105 54.5177 59.2349 54.0324 57.5287C53.8707 56.9754 53.5703 56.4912 53.0619 56.1454L53.0388 56.1223Z" fill="#3872DD"/>
<path d="M34.7147 37.7921C35.0151 38.5529 35.8007 39.0371 36.725 38.991C37.0485 38.991 37.3951 38.9218 37.6955 38.8065C38.6198 38.4838 39.4286 37.8843 40.4222 37.769C40.4222 37.769 40.4684 37.769 40.4915 37.7459C40.584 37.5846 40.7688 37.4232 40.7226 37.2848C40.6995 37.1465 40.4684 36.962 40.3298 36.962C39.9601 36.9851 39.5672 37.0543 39.2206 37.1926C38.6429 37.4001 38.0884 37.6998 37.5107 37.9073C37.1641 38.0226 36.7712 38.1379 36.4015 38.1149C35.639 38.0687 35.2693 37.3309 35.639 36.6623C35.8932 36.2012 36.3091 35.9475 36.7944 35.74C38.435 35.0714 39.937 35.4172 41.3003 36.4317C41.67 36.7084 41.9473 37.0543 42.2939 37.354C42.3863 37.4232 42.6405 37.4462 42.7329 37.377C42.8485 37.2848 42.9409 37.0543 42.9178 36.9159C42.8947 36.7545 42.7329 36.5701 42.5943 36.4548C42.1322 36.0398 41.6469 35.6478 41.1848 35.2558C40.584 35.0483 40.0525 34.7947 39.4748 34.6564C37.9728 34.3105 36.5864 34.5872 35.3848 35.6017C34.6916 36.1781 34.4374 37.0773 34.7147 37.7921Z" fill="#3872DD"/>
<path d="M39.2438 31.1054C39.4055 31.3129 39.6135 31.4743 39.8214 31.6587C40.376 31.8432 40.9537 32.0276 41.5083 32.2121C41.7856 32.3043 42.0629 32.3274 42.1784 32.0276C42.317 31.7279 42.086 31.5204 41.8318 31.4282C41.4621 31.2668 41.0692 31.1745 40.6995 31.0131C40.4453 30.8979 40.1681 30.7595 39.9832 30.5751C39.729 30.2984 39.8214 29.9986 40.1912 29.9295C40.4684 29.8603 40.8151 29.8603 41.0923 29.9756C41.8087 30.2292 42.2477 30.8056 42.5019 31.4973C42.6405 31.9123 42.7099 32.3735 42.8254 32.8115C42.8716 33.0191 42.964 33.2035 43.1951 33.1574C43.3569 33.1113 43.5186 32.9729 43.6111 32.8577C43.6804 32.7885 43.6804 32.6271 43.6573 32.5118C43.5186 31.3129 43.0796 30.2292 42.086 29.4914C41.3927 28.9842 40.6071 28.7997 39.7752 29.1225C38.9434 29.4453 38.6661 30.4137 39.2207 31.1284L39.2438 31.1054Z" fill="#3872DD"/>
<path d="M25.6107 37.3995C25.8649 37.3304 26.0035 37.1459 25.9342 36.8462C25.9111 36.7309 25.8649 36.6156 25.8418 36.5003C25.5414 35.0017 26.7429 33.3877 28.4529 33.9641C28.5453 33.9872 28.6609 34.0333 28.7302 34.0102C28.8919 33.9411 29.123 33.8719 29.1692 33.7566C29.2154 33.6183 29.123 33.4108 29.0306 33.2724C28.9613 33.1802 28.7764 33.1341 28.6609 33.088C27.3437 32.673 26.0728 33.1802 25.3334 34.4714C25.2872 34.5636 25.2179 34.7019 25.1485 34.8633C24.8713 35.5781 24.8944 36.3159 25.1023 37.0306C25.1716 37.2843 25.3796 37.4457 25.6338 37.3765L25.6107 37.3995Z" fill="#3872DD"/>
<path d="M32.1039 31.3586C32.1039 31.3586 32.4275 31.4739 32.543 31.4048C32.7047 31.3356 32.8203 31.1511 32.9589 31.0359C33.8832 30.1597 35.0848 30.275 35.8011 31.3125C35.8473 31.3817 35.8936 31.4739 35.9398 31.5661C36.0784 31.7967 36.2633 31.9581 36.5175 31.7967C36.7947 31.6353 36.7716 31.3817 36.6561 31.105C36.4019 30.5978 36.0784 30.1828 35.6856 29.9752C34.5764 29.3527 33.3749 29.4911 32.5199 30.275C32.3119 30.4594 32.1271 30.69 31.9884 30.9436C31.9422 31.0359 31.9884 31.2895 32.1039 31.3817V31.3586Z" fill="#3872DD"/>
<path d="M19.2099 35.117C19.3948 34.8173 19.6258 34.5406 19.9493 34.1256C19.9493 34.0795 19.9955 33.8259 19.9031 33.7336C19.7876 33.6414 19.5103 33.6414 19.3485 33.6875C19.1868 33.7336 19.025 33.895 18.9095 34.0334C18.1238 34.9787 17.7772 36.0623 18.0545 37.3074C18.147 37.7916 18.378 37.9991 18.6784 37.953C18.9788 37.8838 19.0481 37.6763 18.9326 37.1229C18.7709 36.4082 18.8633 35.7395 19.2561 35.1401L19.2099 35.117Z" fill="#3872DD"/>
<path d="M80.5137 46.5535C80.167 46.2768 79.7973 46.0001 79.4276 45.7926C79.3583 45.7465 79.081 45.8618 79.0348 45.9771C78.9655 46.0924 79.0117 46.3229 79.081 46.4152C79.2196 46.5996 79.4276 46.7149 79.6356 46.8763C79.7973 46.9455 79.9822 47.0607 80.1439 47.1069C80.2595 47.1069 80.4443 47.0607 80.5137 46.9685C80.583 46.8763 80.583 46.6457 80.5137 46.5766V46.5535Z" fill="#3872DD"/>
<path d="M85.6433 30.783C84.8577 30.2066 83.9334 29.953 82.9629 29.976C82.3852 29.976 82.2004 30.0913 82.1772 30.368C82.1772 30.6908 82.3621 30.8291 82.9629 30.8291C83.7023 30.8291 84.3724 30.9905 84.9732 31.3594C85.135 31.4747 85.2736 31.5669 85.4123 31.6592C85.5971 31.7745 85.8051 31.7514 85.8975 31.5669C85.9669 31.4286 85.9669 31.2211 85.9206 31.0597C85.8975 30.9444 85.7358 30.8522 85.6202 30.783H85.6433Z" fill="#3872DD"/>
<path d="M86.8914 32.2121C86.7759 32.0507 86.3831 32.143 86.36 32.3274C86.3138 32.5119 86.3831 32.7194 86.4293 33.0422C86.7297 32.8808 86.9608 32.8347 87.0301 32.6963C87.0994 32.581 87.007 32.3274 86.9145 32.2121H86.8914Z" fill="#3872DD"/>
</g>
<defs>
<clipPath id="clip0_508_3710">
<rect width="173.513" height="84.6405" fill="white" transform="translate(15.7437 7.67969)"/>
</clipPath>
</defs>
</svg>
