<svg width="17" height="17" viewBox="0 0 17 17" fill="none" xmlns="http://www.w3.org/2000/svg">
<path fill-rule="evenodd" clip-rule="evenodd" d="M2.30456 5.1053C2.43583 4.97407 2.61384 4.90035 2.79946 4.90035C2.98507 4.90035 3.16309 4.97407 3.29436 5.1053L8.39946 10.2104L13.5046 5.1053C13.5691 5.03845 13.6464 4.98512 13.7318 4.94843C13.8172 4.91175 13.909 4.89244 14.002 4.89163C14.0949 4.89082 14.1871 4.90853 14.2731 4.94373C14.3592 4.97892 14.4373 5.0309 14.503 5.09663C14.5688 5.16235 14.6207 5.24051 14.6559 5.32654C14.6911 5.41256 14.7088 5.50474 14.708 5.59768C14.7072 5.69063 14.6879 5.78248 14.6512 5.86789C14.6145 5.95329 14.5612 6.03053 14.4944 6.0951L8.89436 11.6951C8.76309 11.8263 8.58507 11.9001 8.39946 11.9001C8.21384 11.9001 8.03583 11.8263 7.90456 11.6951L2.30456 6.0951C2.17333 5.96383 2.09961 5.78582 2.09961 5.6002C2.09961 5.41459 2.17333 5.23657 2.30456 5.1053Z" fill="black"/>
</svg>
