<svg width="25" height="24" viewBox="0 0 25 24" fill="none" xmlns="http://www.w3.org/2000/svg">
<path d="M22.4302 6.85784C22.446 7.07103 22.446 7.28427 22.446 7.49745C22.446 14 17.2906 21.4924 7.86802 21.4924C4.96509 21.4924 2.26841 20.6852 0 19.2843C0.412451 19.3299 0.808984 19.3452 1.2373 19.3452C3.63257 19.3452 5.83755 18.5685 7.59834 17.2437C5.3458 17.198 3.45811 15.7817 2.80771 13.8325C3.125 13.8781 3.44224 13.9086 3.77539 13.9086C4.2354 13.9086 4.69546 13.8477 5.12373 13.7411C2.77603 13.2842 1.01519 11.3045 1.01519 8.91369V8.8528C1.69727 9.21828 2.49048 9.4467 3.33115 9.47712C1.95107 8.59386 1.04692 7.08627 1.04692 5.38067C1.04692 4.46698 1.30068 3.62942 1.74487 2.89845C4.26709 5.88322 8.05835 7.83242 12.3096 8.04566C12.2303 7.68017 12.1827 7.2995 12.1827 6.91878C12.1827 4.20809 14.4669 2 17.3064 2C18.7816 2 20.1141 2.59391 21.05 3.5533C22.208 3.34011 23.3184 2.92892 24.302 2.36548C23.9212 3.50764 23.1122 4.46703 22.0494 5.07613C23.0805 4.96958 24.0799 4.69541 24.9999 4.31473C24.302 5.28931 23.4295 6.1573 22.4302 6.85784Z" fill="black"/>
</svg>
