<svg width="24" height="24" viewBox="0 0 24 24" fill="none" xmlns="http://www.w3.org/2000/svg">
<path d="M22.3299 6.60777C22.0911 5.58129 21.3875 4.77287 20.4941 4.49852C18.8749 4 12.3819 4 12.3819 4C12.3819 4 5.8889 4 4.26961 4.49852C3.37627 4.77292 2.67268 5.58129 2.43388 6.60777C2 8.46832 2 12.3502 2 12.3502C2 12.3502 2 16.232 2.43388 18.0926C2.67268 19.1191 3.37627 19.8938 4.26961 20.1681C5.8889 20.6667 12.3819 20.6667 12.3819 20.6667C12.3819 20.6667 18.8748 20.6667 20.4941 20.1681C21.3875 19.8938 22.0911 19.1191 22.3299 18.0926C22.7637 16.232 22.7637 12.3502 22.7637 12.3502C22.7637 12.3502 22.7637 8.46832 22.3299 6.60777ZM10.2583 15.8746V8.82574L15.6852 12.3503L10.2583 15.8746Z" fill="black"/>
</svg>
